M48
;Layer_Color=9474304
;FILE_FORMAT=4:4
METRIC,LZ
;TYPE=PLATED
T01F00S00C0.3000
T02F00S00C0.5000
T03F00S00C0.7112
T04F00S00C1.0200
T05F00S00C1.0668
T06F00S00C2.1000
;TYPE=NON_PLATED
T07F00S00C1.2100
%
T01
X000508Y000127
X0005211Y00049119
X00114554Y00006096
X0014681Y0000616
X0015343Y0007398
X0010843Y00165636
X0013843Y0020544
X00192487Y0020047
X00274595Y00213526
X0027614Y0022286
X00299445Y00201168
X0026598Y0016571
X0027762Y0015348
X0024943Y0026492
X0025254Y0028372
X0029718Y00300276
X00308735Y0031096
X0031801
X00325882Y00306324
X00338836Y00309118
X0035306Y0030988
X00345948Y00318516
X00338836Y00326064
X0032487Y0035579
X0030607
X002917Y00342646
X002817Y0034925
X00251714Y0035031
Y00383794
X00251206Y00392735
X00279875Y00382778
X00293624
X003429Y00367284
X0036087Y00268095
X0038894Y00256794
X0036894Y000582
X001557Y0026435
X00155702Y00294892
X0015367Y0032385
X00112621Y00305565
X00100917Y00305562
X00093218Y0032768
X00109446Y00350075
X00050546Y0032862
X0002921Y00314706
X0001651Y00294894
X0006045Y00301244
Y00301292
X0005918Y0026435
X0007925Y0027286
X0006343Y0023398
X00061922Y00390652
X0040386Y00385318
X00418338Y0030988
X0043542Y0031166
X00435356Y00292862
X00441325Y0027686
X004191Y0026797
X0045828Y0031115
X00480314Y0030226
X0048894Y002182
X0040716Y0005099
Y0000743
X00410568Y00537568
X00413025Y00680676
X0043765Y00682752
X004315Y0070717
X0047565Y0070463
X0037515Y0070717
X0037465Y0066929
X0036265
X0038665
X0038065Y0065929
X0033735Y0070463
X0027286Y0066675
X00250825Y0064844
X0020955Y0064844
X0021717Y0062103
X001651Y0062484
X0017272Y00648559
X0013843Y0061487
X0011963
X00098298Y00627126
X000475Y0063608
X0002743Y0066148
X0004826Y0054972
X000475Y0054102
X0009296Y00517144
X0011176Y0048876
X0009296Y00462026
X00104331Y0043383
X0018288Y0042545
X00219329Y0042091
X00222041Y00413811
X00222504Y00399913
X00243586Y0041591
X00262955Y0041226
X0026162Y00441071
X00259842Y00465328
X00247396Y00465582
X00236413Y00467098
X0020934Y0045974
X0025342Y00514676
X00287528Y00484886
X00305308Y00477632
X0030493Y0041591
X003048Y00404114
X00288478Y00397002
X0032597Y00414085
X00347218Y0044323
X00374142Y00514096
X0021717Y0055372
X0019685Y0057023
X0013818Y0057004
X0011938
X0009398Y0056388
X0014526Y00538988
T02
X0002921Y0033294
Y0034544
Y0035794
X0045085Y0037231
Y0038481
X0051689Y0030079
Y0028829
X0045085Y0039731
X0002921Y0042819
Y0044069
Y0045319
X0028595Y0071882
X0029845
T03
X0012983Y00305364
X0018034Y003048
T04
X0052Y0034417
Y0036957
Y0039497
Y0042037
Y0044577
Y0051562
Y0054102
Y0056642
Y0059182
Y0061722
T05
X001648Y0034887
Y0037427
X003852
Y0034887
Y0039967
Y0042507
Y0045047
Y0047587
Y0050127
Y0052667
X001648
Y0050127
Y0047587
Y0045047
Y0042507
Y0039967
T06
X00025Y00025
X00525
X00525Y00725
X00025
T07
X0010543Y0013971
M30
