G04*
G04 #@! TF.GenerationSoftware,Altium Limited,Altium Designer,25.0.2 (28)*
G04*
G04 Layer_Color=16711935*
%FSLAX44Y44*%
%MOMM*%
G71*
G04*
G04 #@! TF.SameCoordinates,2A483E41-FD86-4516-B0ED-3C6593A289C4*
G04*
G04*
G04 #@! TF.FilePolarity,Negative*
G04*
G01*
G75*
%ADD55C,1.1016*%
%ADD66R,1.1016X1.1016*%
%ADD67R,1.1016X1.1016*%
%ADD68C,1.3116*%
%ADD69C,0.7016*%
%ADD70C,1.4716*%
%ADD71C,1.5748*%
%ADD72C,4.1016*%
%ADD73R,1.4716X1.4716*%
%ADD74C,1.3716*%
D55*
X298450Y718820D02*
D03*
X450850Y372310D02*
D03*
Y384810D02*
D03*
X29210Y428190D02*
D03*
Y332940D02*
D03*
X516890Y288290D02*
D03*
X29210Y345440D02*
D03*
Y440690D02*
D03*
D66*
X285950Y718820D02*
D03*
D67*
X450850Y397310D02*
D03*
X516890Y300790D02*
D03*
X29210Y357940D02*
D03*
Y453190D02*
D03*
D68*
X105430Y139710D02*
D03*
D69*
X380650Y659290D02*
D03*
X374650Y669290D02*
D03*
X362650D02*
D03*
X386650D02*
D03*
X192487Y200470D02*
D03*
X155702Y294892D02*
D03*
X93218Y327680D02*
D03*
X112621Y305565D02*
D03*
X93980Y563880D02*
D03*
X196850Y570230D02*
D03*
X165100Y624840D02*
D03*
X145260Y538988D02*
D03*
X217170Y553720D02*
D03*
Y621030D02*
D03*
X50800Y12700D02*
D03*
X52110Y49119D02*
D03*
X293624Y382778D02*
D03*
X281700Y349250D02*
D03*
X299445Y201168D02*
D03*
X209340Y459740D02*
D03*
X182880Y425450D02*
D03*
X347218Y443230D02*
D03*
X304800Y404114D02*
D03*
X219329Y420910D02*
D03*
X253420Y514676D02*
D03*
X305308Y477632D02*
D03*
X243586Y415910D02*
D03*
X92960Y517144D02*
D03*
Y462026D02*
D03*
X342900Y367284D02*
D03*
X374142Y514096D02*
D03*
X222504Y399913D02*
D03*
X437650Y682752D02*
D03*
X262955Y412260D02*
D03*
X403860Y385318D02*
D03*
X251206Y392735D02*
D03*
X410568Y537568D02*
D03*
X222041Y413811D02*
D03*
X50546Y328620D02*
D03*
X236413Y467098D02*
D03*
X29210Y314706D02*
D03*
X247396Y465582D02*
D03*
X441325Y276860D02*
D03*
X338836Y326064D02*
D03*
X287528Y484886D02*
D03*
X261620Y441071D02*
D03*
X60450Y301244D02*
D03*
X153670Y323850D02*
D03*
X419100Y267970D02*
D03*
X345948Y318516D02*
D03*
X325882Y306324D02*
D03*
X338836Y309118D02*
D03*
X16510Y294894D02*
D03*
X279875Y382778D02*
D03*
X251714Y350310D02*
D03*
Y383794D02*
D03*
X480314Y302260D02*
D03*
X297180Y300276D02*
D03*
X318010Y310960D02*
D03*
X353060Y309880D02*
D03*
X418338D02*
D03*
X360870Y268095D02*
D03*
X109446Y350075D02*
D03*
X47500Y541020D02*
D03*
X259842Y465328D02*
D03*
X60450Y301292D02*
D03*
X155700Y264350D02*
D03*
X249430Y264920D02*
D03*
X288478Y397002D02*
D03*
X100917Y305562D02*
D03*
X79250Y272860D02*
D03*
X308735Y310960D02*
D03*
X431500Y707170D02*
D03*
X325970Y414085D02*
D03*
X114554Y6096D02*
D03*
X108430Y165636D02*
D03*
X250825Y648440D02*
D03*
X291700Y342646D02*
D03*
X388940Y256794D02*
D03*
X435356Y292862D02*
D03*
X98298Y627126D02*
D03*
X61922Y390652D02*
D03*
X276140Y222860D02*
D03*
X274595Y213526D02*
D03*
X324870Y355790D02*
D03*
X111760Y488760D02*
D03*
X435420Y311660D02*
D03*
X458280Y311150D02*
D03*
X119380Y570040D02*
D03*
X119630Y614870D02*
D03*
X47500Y636080D02*
D03*
X27430Y661480D02*
D03*
X272860Y666750D02*
D03*
X413025Y680676D02*
D03*
X146810Y6160D02*
D03*
X153430Y73980D02*
D03*
X63430Y233980D02*
D03*
X59180Y264350D02*
D03*
X138430Y205440D02*
D03*
X265980Y165710D02*
D03*
X277620Y153480D02*
D03*
X368940Y58200D02*
D03*
X252540Y283720D02*
D03*
X407160Y7430D02*
D03*
Y50990D02*
D03*
X104331Y433830D02*
D03*
X306070Y355790D02*
D03*
X304930Y415910D02*
D03*
X488940Y218200D02*
D03*
X48260Y549720D02*
D03*
X138180Y570040D02*
D03*
X138430Y614870D02*
D03*
X172720Y648559D02*
D03*
X209550Y648440D02*
D03*
X375150Y707170D02*
D03*
X337350Y704630D02*
D03*
X475650D02*
D03*
D70*
X520000Y566420D02*
D03*
Y541020D02*
D03*
Y591820D02*
D03*
Y617220D02*
D03*
Y420370D02*
D03*
Y394970D02*
D03*
Y369570D02*
D03*
Y344170D02*
D03*
D71*
X385200Y450470D02*
D03*
X164800Y501270D02*
D03*
Y348870D02*
D03*
Y374270D02*
D03*
Y399670D02*
D03*
Y425070D02*
D03*
Y450470D02*
D03*
Y475870D02*
D03*
Y526670D02*
D03*
X385200Y348870D02*
D03*
Y374270D02*
D03*
Y399670D02*
D03*
Y425070D02*
D03*
Y475870D02*
D03*
Y501270D02*
D03*
Y526670D02*
D03*
D72*
X25000Y725000D02*
D03*
Y25000D02*
D03*
X525000D02*
D03*
X525000Y725000D02*
D03*
D73*
X520000Y515620D02*
D03*
Y445770D02*
D03*
D74*
X180340Y304800D02*
D03*
X129830Y305364D02*
D03*
M02*
