G04*
G04 #@! TF.GenerationSoftware,Altium Limited,Altium Designer,25.0.2 (28)*
G04*
G04 Layer_Color=8421504*
%FSLAX44Y44*%
%MOMM*%
G71*
G04*
G04 #@! TF.SameCoordinates,2A483E41-FD86-4516-B0ED-3C6593A289C4*
G04*
G04*
G04 #@! TF.FilePolarity,Positive*
G04*
G01*
G75*
%ADD20R,1.2000X1.9000*%
%ADD21R,1.2000X1.9000*%
%ADD22R,1.4700X1.0400*%
%ADD23R,1.6000X1.0000*%
%ADD24R,1.0400X1.4700*%
%ADD25R,0.3500X0.5750*%
%ADD26R,0.5750X0.3500*%
%ADD27R,0.8000X0.8000*%
G04:AMPARAMS|DCode=28|XSize=2mm|YSize=1mm|CornerRadius=0.125mm|HoleSize=0mm|Usage=FLASHONLY|Rotation=270.000|XOffset=0mm|YOffset=0mm|HoleType=Round|Shape=RoundedRectangle|*
%AMROUNDEDRECTD28*
21,1,2.0000,0.7500,0,0,270.0*
21,1,1.7500,1.0000,0,0,270.0*
1,1,0.2500,-0.3750,-0.8750*
1,1,0.2500,-0.3750,0.8750*
1,1,0.2500,0.3750,0.8750*
1,1,0.2500,0.3750,-0.8750*
%
%ADD28ROUNDEDRECTD28*%
%ADD29C,1.0000*%
%ADD30R,2.1000X3.0000*%
%ADD31R,0.8000X1.6000*%
%ADD32R,0.8000X0.8000*%
%ADD33O,1.2500X0.2500*%
G04:AMPARAMS|DCode=34|XSize=1.32mm|YSize=0.6mm|CornerRadius=0.075mm|HoleSize=0mm|Usage=FLASHONLY|Rotation=180.000|XOffset=0mm|YOffset=0mm|HoleType=Round|Shape=RoundedRectangle|*
%AMROUNDEDRECTD34*
21,1,1.3200,0.4500,0,0,180.0*
21,1,1.1700,0.6000,0,0,180.0*
1,1,0.1500,-0.5850,0.2250*
1,1,0.1500,0.5850,0.2250*
1,1,0.1500,0.5850,-0.2250*
1,1,0.1500,-0.5850,-0.2250*
%
%ADD34ROUNDEDRECTD34*%
G04:AMPARAMS|DCode=35|XSize=1.4mm|YSize=0.41mm|CornerRadius=0.0513mm|HoleSize=0mm|Usage=FLASHONLY|Rotation=90.000|XOffset=0mm|YOffset=0mm|HoleType=Round|Shape=RoundedRectangle|*
%AMROUNDEDRECTD35*
21,1,1.4000,0.3075,0,0,90.0*
21,1,1.2975,0.4100,0,0,90.0*
1,1,0.1025,0.1538,0.6488*
1,1,0.1025,0.1538,-0.6488*
1,1,0.1025,-0.1538,-0.6488*
1,1,0.1025,-0.1538,0.6488*
%
%ADD35ROUNDEDRECTD35*%
%ADD36R,1.1300X1.7700*%
G04:AMPARAMS|DCode=37|XSize=1.21mm|YSize=0.73mm|CornerRadius=0.1825mm|HoleSize=0mm|Usage=FLASHONLY|Rotation=270.000|XOffset=0mm|YOffset=0mm|HoleType=Round|Shape=RoundedRectangle|*
%AMROUNDEDRECTD37*
21,1,1.2100,0.3650,0,0,270.0*
21,1,0.8450,0.7300,0,0,270.0*
1,1,0.3650,-0.1825,-0.4225*
1,1,0.3650,-0.1825,0.4225*
1,1,0.3650,0.1825,0.4225*
1,1,0.3650,0.1825,-0.4225*
%
%ADD37ROUNDEDRECTD37*%
%ADD38O,0.2500X1.2500*%
%ADD39R,2.5000X2.5000*%
D20*
X348939Y71970D02*
D03*
X368939D02*
D03*
X388938D02*
D03*
X408938D02*
D03*
X468936D02*
D03*
X448938Y242970D02*
D03*
X428940D02*
D03*
X388940D02*
D03*
D21*
X428940Y71971D02*
D03*
X448939D02*
D03*
X488936Y71970D02*
D03*
X488937Y242970D02*
D03*
X468937D02*
D03*
X408940D02*
D03*
X368940D02*
D03*
X348940D02*
D03*
D22*
X284480Y685550D02*
D03*
Y666750D02*
D03*
X247651Y716790D02*
D03*
Y697990D02*
D03*
X209550D02*
D03*
Y716789D02*
D03*
X349250Y264920D02*
D03*
Y283720D02*
D03*
X309880D02*
D03*
Y264920D02*
D03*
X264160Y283720D02*
D03*
X92711Y433830D02*
D03*
X469900Y311150D02*
D03*
X447040Y311660D02*
D03*
X172721Y716790D02*
D03*
Y697990D02*
D03*
X294640Y127760D02*
D03*
Y146560D02*
D03*
X469900Y292350D02*
D03*
X447040Y292860D02*
D03*
X309880Y221740D02*
D03*
Y240540D02*
D03*
X264160Y264920D02*
D03*
X92711Y452630D02*
D03*
D23*
X110620Y677780D02*
D03*
X134620Y652780D02*
D03*
Y702780D02*
D03*
D24*
X211330Y212090D02*
D03*
X192530D02*
D03*
X425960Y19050D02*
D03*
X407160D02*
D03*
Y39370D02*
D03*
X425960D02*
D03*
X306070Y344170D02*
D03*
X305560Y322580D02*
D03*
X277620Y165100D02*
D03*
X138430Y603250D02*
D03*
X138180Y581660D02*
D03*
X87380Y576580D02*
D03*
X48260Y561340D02*
D03*
X59180Y252730D02*
D03*
X146810Y17780D02*
D03*
X324870Y344170D02*
D03*
X324360Y322580D02*
D03*
X47500Y647700D02*
D03*
X27430Y673100D02*
D03*
X119630Y603250D02*
D03*
X119380Y581660D02*
D03*
X111760Y500380D02*
D03*
X60450Y284480D02*
D03*
X79250D02*
D03*
X77980Y252730D02*
D03*
X296420Y165100D02*
D03*
X211330Y233680D02*
D03*
X192530D02*
D03*
X28700Y647700D02*
D03*
X155700Y283209D02*
D03*
X174500D02*
D03*
X155700Y252730D02*
D03*
X174499D02*
D03*
X46230Y673100D02*
D03*
X92960Y500380D02*
D03*
X28700Y528321D02*
D03*
X47500D02*
D03*
X68580Y576580D02*
D03*
X92200Y17780D02*
D03*
X111000D02*
D03*
X165610D02*
D03*
X29460Y561340D02*
D03*
D25*
X180340Y607530D02*
D03*
X185340D02*
D03*
X190340D02*
D03*
Y589280D02*
D03*
X185340D02*
D03*
X180340D02*
D03*
D26*
X196965Y605905D02*
D03*
Y600905D02*
D03*
Y595905D02*
D03*
Y590905D02*
D03*
X173715D02*
D03*
Y595905D02*
D03*
Y600905D02*
D03*
Y605905D02*
D03*
D27*
X57270Y21590D02*
D03*
X72270D02*
D03*
D28*
X168430Y59710D02*
D03*
X153430D02*
D03*
X138430D02*
D03*
X123430D02*
D03*
X108430D02*
D03*
X93430D02*
D03*
X78430D02*
D03*
X63430D02*
D03*
X48430D02*
D03*
X33430D02*
D03*
Y219710D02*
D03*
X48430D02*
D03*
X63430D02*
D03*
X78430D02*
D03*
X93430D02*
D03*
X108430D02*
D03*
X123430D02*
D03*
X138430D02*
D03*
X153430D02*
D03*
X168430D02*
D03*
D29*
X350520Y19050D02*
D03*
Y34290D02*
D03*
X488950Y43180D02*
D03*
X281940Y500380D02*
D03*
X297180D02*
D03*
X266700D02*
D03*
X250190D02*
D03*
X368300Y281940D02*
D03*
D30*
X475650Y723900D02*
D03*
X337350D02*
D03*
D31*
X375150Y694900D02*
D03*
X425150D02*
D03*
X362650D02*
D03*
X387650D02*
D03*
X400150D02*
D03*
X412650D02*
D03*
X437650D02*
D03*
X450150D02*
D03*
D32*
X247650Y656710D02*
D03*
X209550Y656710D02*
D03*
X172720Y656830D02*
D03*
X247650Y671710D02*
D03*
X209550D02*
D03*
X172720Y671830D02*
D03*
D33*
X315450Y415910D02*
D03*
Y410910D02*
D03*
Y385910D02*
D03*
Y390910D02*
D03*
Y395910D02*
D03*
Y400910D02*
D03*
Y405910D02*
D03*
Y420910D02*
D03*
Y425910D02*
D03*
Y430910D02*
D03*
Y435910D02*
D03*
Y440910D02*
D03*
X232950D02*
D03*
Y435910D02*
D03*
Y430910D02*
D03*
Y425910D02*
D03*
Y420910D02*
D03*
Y415910D02*
D03*
Y410910D02*
D03*
Y405910D02*
D03*
Y400910D02*
D03*
Y395910D02*
D03*
Y390910D02*
D03*
Y385910D02*
D03*
D34*
X255110Y165710D02*
D03*
X265270Y222860D02*
D03*
Y203860D02*
D03*
X245270Y213360D02*
D03*
X235110Y156210D02*
D03*
X255110Y146710D02*
D03*
D35*
X112621Y316835D02*
D03*
Y361345D02*
D03*
X93120Y316835D02*
D03*
X99620D02*
D03*
X106120D02*
D03*
Y361345D02*
D03*
X99620D02*
D03*
X93120D02*
D03*
D36*
X132080Y284480D02*
D03*
X102680D02*
D03*
X131540Y252730D02*
D03*
X102140D02*
D03*
X70390Y403860D02*
D03*
X99790D02*
D03*
D37*
X204470Y52034D02*
D03*
Y85634D02*
D03*
D38*
X301700Y454660D02*
D03*
X296700D02*
D03*
X291700D02*
D03*
X286700D02*
D03*
X281700D02*
D03*
X276700D02*
D03*
X271700D02*
D03*
X266700D02*
D03*
X261700D02*
D03*
X256700D02*
D03*
X251700D02*
D03*
X246700D02*
D03*
Y372160D02*
D03*
X251700D02*
D03*
X256700D02*
D03*
X261700D02*
D03*
X266700D02*
D03*
X271700D02*
D03*
X276700D02*
D03*
X281700D02*
D03*
X286700D02*
D03*
X291700D02*
D03*
X296700D02*
D03*
X301700D02*
D03*
D39*
X232970Y98754D02*
D03*
X302970D02*
D03*
Y28754D02*
D03*
X232970D02*
D03*
M02*
