G04*
G04 #@! TF.GenerationSoftware,Altium Limited,Altium Designer,25.0.2 (28)*
G04*
G04 Layer_Physical_Order=1*
G04 Layer_Color=255*
%FSLAX44Y44*%
%MOMM*%
G71*
G04*
G04 #@! TF.SameCoordinates,2A483E41-FD86-4516-B0ED-3C6593A289C4*
G04*
G04*
G04 #@! TF.FilePolarity,Positive*
G04*
G01*
G75*
%ADD16C,0.1500*%
%ADD22R,1.4700X1.0400*%
%ADD23R,1.6000X1.0000*%
%ADD24R,1.0400X1.4700*%
%ADD25R,0.3500X0.5750*%
%ADD26R,0.5750X0.3500*%
%ADD27R,0.8000X0.8000*%
G04:AMPARAMS|DCode=28|XSize=2mm|YSize=1mm|CornerRadius=0.125mm|HoleSize=0mm|Usage=FLASHONLY|Rotation=270.000|XOffset=0mm|YOffset=0mm|HoleType=Round|Shape=RoundedRectangle|*
%AMROUNDEDRECTD28*
21,1,2.0000,0.7500,0,0,270.0*
21,1,1.7500,1.0000,0,0,270.0*
1,1,0.2500,-0.3750,-0.8750*
1,1,0.2500,-0.3750,0.8750*
1,1,0.2500,0.3750,0.8750*
1,1,0.2500,0.3750,-0.8750*
%
%ADD28ROUNDEDRECTD28*%
%ADD29C,1.0000*%
%ADD30R,2.1000X3.0000*%
%ADD31R,0.8000X1.6000*%
%ADD32R,0.8000X0.8000*%
%ADD33O,1.2500X0.2500*%
G04:AMPARAMS|DCode=34|XSize=1.32mm|YSize=0.6mm|CornerRadius=0.075mm|HoleSize=0mm|Usage=FLASHONLY|Rotation=180.000|XOffset=0mm|YOffset=0mm|HoleType=Round|Shape=RoundedRectangle|*
%AMROUNDEDRECTD34*
21,1,1.3200,0.4500,0,0,180.0*
21,1,1.1700,0.6000,0,0,180.0*
1,1,0.1500,-0.5850,0.2250*
1,1,0.1500,0.5850,0.2250*
1,1,0.1500,0.5850,-0.2250*
1,1,0.1500,-0.5850,-0.2250*
%
%ADD34ROUNDEDRECTD34*%
G04:AMPARAMS|DCode=35|XSize=1.4mm|YSize=0.41mm|CornerRadius=0.0513mm|HoleSize=0mm|Usage=FLASHONLY|Rotation=90.000|XOffset=0mm|YOffset=0mm|HoleType=Round|Shape=RoundedRectangle|*
%AMROUNDEDRECTD35*
21,1,1.4000,0.3075,0,0,90.0*
21,1,1.2975,0.4100,0,0,90.0*
1,1,0.1025,0.1538,0.6488*
1,1,0.1025,0.1538,-0.6488*
1,1,0.1025,-0.1538,-0.6488*
1,1,0.1025,-0.1538,0.6488*
%
%ADD35ROUNDEDRECTD35*%
%ADD36R,1.1300X1.7700*%
G04:AMPARAMS|DCode=37|XSize=1.21mm|YSize=0.73mm|CornerRadius=0.1825mm|HoleSize=0mm|Usage=FLASHONLY|Rotation=270.000|XOffset=0mm|YOffset=0mm|HoleType=Round|Shape=RoundedRectangle|*
%AMROUNDEDRECTD37*
21,1,1.2100,0.3650,0,0,270.0*
21,1,0.8450,0.7300,0,0,270.0*
1,1,0.3650,-0.1825,-0.4225*
1,1,0.3650,-0.1825,0.4225*
1,1,0.3650,0.1825,0.4225*
1,1,0.3650,0.1825,-0.4225*
%
%ADD37ROUNDEDRECTD37*%
%ADD38O,0.2500X1.2500*%
%ADD39R,2.5000X2.5000*%
%ADD49R,0.2500X0.3500*%
%ADD54R,0.3500X0.2500*%
%ADD71C,1.5748*%
%ADD75R,1.2000X3.0000*%
%ADD76C,0.3000*%
%ADD77C,0.4000*%
%ADD78R,1.0000X1.0000*%
%ADD79R,1.0000X1.0000*%
%ADD80C,1.2100*%
%ADD81C,0.6000*%
%ADD82C,1.3700*%
%ADD83C,4.0000*%
%ADD84R,1.3700X1.3700*%
%ADD85C,1.2700*%
D16*
X117130Y730250D02*
X121630D01*
X443520Y19050D02*
X448020D01*
X152400Y720380D02*
Y724880D01*
X44450Y240320D02*
Y244820D01*
X273550Y127000D02*
X278050D01*
X266700Y350810D02*
Y355310D01*
X29210Y240320D02*
Y244820D01*
X113030Y463630D02*
Y468130D01*
X146340Y300990D02*
X150840D01*
X209550Y296200D02*
Y300700D01*
X61250Y455930D02*
X65750D01*
X449580Y41140D02*
Y45640D01*
X408940Y263181D02*
Y267680D01*
X429260Y262970D02*
Y267470D01*
X448310Y263180D02*
Y267680D01*
X468630Y263180D02*
Y267680D01*
X322870Y500380D02*
X327370D01*
X113030Y446060D02*
Y450560D01*
X330700Y420370D02*
X335200D01*
X209840Y430530D02*
X214340D01*
X72390Y681010D02*
Y685510D01*
D22*
X284480Y685550D02*
D03*
Y666750D02*
D03*
X247651Y716790D02*
D03*
Y697990D02*
D03*
X209550D02*
D03*
Y716789D02*
D03*
X349250Y264920D02*
D03*
Y283720D02*
D03*
X309880D02*
D03*
Y264920D02*
D03*
X264160Y283720D02*
D03*
X92711Y433830D02*
D03*
X469900Y311150D02*
D03*
X447040Y311660D02*
D03*
X172721Y716790D02*
D03*
Y697990D02*
D03*
X294640Y127760D02*
D03*
Y146560D02*
D03*
X469900Y292350D02*
D03*
X447040Y292860D02*
D03*
X309880Y221740D02*
D03*
Y240540D02*
D03*
X264160Y264920D02*
D03*
X92711Y452630D02*
D03*
D23*
X110620Y677780D02*
D03*
X134620Y652780D02*
D03*
Y702780D02*
D03*
D24*
X211330Y212090D02*
D03*
X192530D02*
D03*
X425960Y19050D02*
D03*
X407160D02*
D03*
Y39370D02*
D03*
X425960D02*
D03*
X306070Y344170D02*
D03*
X305560Y322580D02*
D03*
X277620Y165100D02*
D03*
X138430Y603250D02*
D03*
X138180Y581660D02*
D03*
X87380Y576580D02*
D03*
X48260Y561340D02*
D03*
X59180Y252730D02*
D03*
X146810Y17780D02*
D03*
X324870Y344170D02*
D03*
X324360Y322580D02*
D03*
X47500Y647700D02*
D03*
X27430Y673100D02*
D03*
X119630Y603250D02*
D03*
X119380Y581660D02*
D03*
X111760Y500380D02*
D03*
X60450Y284480D02*
D03*
X79250D02*
D03*
X77980Y252730D02*
D03*
X296420Y165100D02*
D03*
X211330Y233680D02*
D03*
X192530D02*
D03*
X28700Y647700D02*
D03*
X155700Y283209D02*
D03*
X174500D02*
D03*
X155700Y252730D02*
D03*
X174499D02*
D03*
X46230Y673100D02*
D03*
X92960Y500380D02*
D03*
X28700Y528321D02*
D03*
X47500D02*
D03*
X68580Y576580D02*
D03*
X92200Y17780D02*
D03*
X111000D02*
D03*
X165610D02*
D03*
X29460Y561340D02*
D03*
D25*
X180340Y607530D02*
D03*
X185340D02*
D03*
X190340D02*
D03*
Y589280D02*
D03*
X185340D02*
D03*
X180340D02*
D03*
D26*
X196965Y605905D02*
D03*
Y600905D02*
D03*
Y595905D02*
D03*
Y590905D02*
D03*
X173715D02*
D03*
Y595905D02*
D03*
Y600905D02*
D03*
Y605905D02*
D03*
D27*
X57270Y21590D02*
D03*
X72270D02*
D03*
D28*
X168430Y59710D02*
D03*
X153430D02*
D03*
X138430D02*
D03*
X123430D02*
D03*
X108430D02*
D03*
X93430D02*
D03*
X78430D02*
D03*
X63430D02*
D03*
X48430D02*
D03*
X33430D02*
D03*
Y219710D02*
D03*
X48430D02*
D03*
X63430D02*
D03*
X78430D02*
D03*
X93430D02*
D03*
X108430D02*
D03*
X123430D02*
D03*
X138430D02*
D03*
X153430D02*
D03*
X168430D02*
D03*
D29*
X350520Y19050D02*
D03*
Y34290D02*
D03*
X488950Y43180D02*
D03*
X281940Y500380D02*
D03*
X297180D02*
D03*
X266700D02*
D03*
X250190D02*
D03*
X368300Y281940D02*
D03*
X298450Y718820D02*
D03*
X450850Y372310D02*
D03*
Y384810D02*
D03*
X29210Y428190D02*
D03*
Y332940D02*
D03*
X516890Y288290D02*
D03*
X29210Y345440D02*
D03*
Y440690D02*
D03*
D30*
X475650Y723900D02*
D03*
X337350D02*
D03*
D31*
X375150Y694900D02*
D03*
X425150D02*
D03*
X362650D02*
D03*
X387650D02*
D03*
X400150D02*
D03*
X412650D02*
D03*
X437650D02*
D03*
X450150D02*
D03*
D32*
X247650Y656710D02*
D03*
X209550Y656710D02*
D03*
X172720Y656830D02*
D03*
X247650Y671710D02*
D03*
X209550D02*
D03*
X172720Y671830D02*
D03*
D33*
X315450Y415910D02*
D03*
Y410910D02*
D03*
Y385910D02*
D03*
Y390910D02*
D03*
Y395910D02*
D03*
Y400910D02*
D03*
Y405910D02*
D03*
Y420910D02*
D03*
Y425910D02*
D03*
Y430910D02*
D03*
Y435910D02*
D03*
Y440910D02*
D03*
X232950D02*
D03*
Y435910D02*
D03*
Y430910D02*
D03*
Y425910D02*
D03*
Y420910D02*
D03*
Y415910D02*
D03*
Y410910D02*
D03*
Y405910D02*
D03*
Y400910D02*
D03*
Y395910D02*
D03*
Y390910D02*
D03*
Y385910D02*
D03*
D34*
X255110Y165710D02*
D03*
X265270Y222860D02*
D03*
Y203860D02*
D03*
X245270Y213360D02*
D03*
X235110Y156210D02*
D03*
X255110Y146710D02*
D03*
D35*
X112621Y316835D02*
D03*
Y361345D02*
D03*
X93120Y316835D02*
D03*
X99620D02*
D03*
X106120D02*
D03*
Y361345D02*
D03*
X99620D02*
D03*
X93120D02*
D03*
D36*
X132080Y284480D02*
D03*
X102680D02*
D03*
X131540Y252730D02*
D03*
X102140D02*
D03*
X70390Y403860D02*
D03*
X99790D02*
D03*
D37*
X204470Y52034D02*
D03*
Y85634D02*
D03*
D38*
X301700Y454660D02*
D03*
X296700D02*
D03*
X291700D02*
D03*
X286700D02*
D03*
X281700D02*
D03*
X276700D02*
D03*
X271700D02*
D03*
X266700D02*
D03*
X261700D02*
D03*
X256700D02*
D03*
X251700D02*
D03*
X246700D02*
D03*
Y372160D02*
D03*
X251700D02*
D03*
X256700D02*
D03*
X261700D02*
D03*
X266700D02*
D03*
X271700D02*
D03*
X276700D02*
D03*
X281700D02*
D03*
X286700D02*
D03*
X291700D02*
D03*
X296700D02*
D03*
X301700D02*
D03*
D39*
X232970Y98754D02*
D03*
X302970D02*
D03*
Y28754D02*
D03*
X232970D02*
D03*
D49*
X116630Y730250D02*
D03*
X122130D02*
D03*
X448520Y19050D02*
D03*
X443020D02*
D03*
X278550Y127000D02*
D03*
X273050D02*
D03*
X151340Y300990D02*
D03*
X145840D02*
D03*
X66250Y455930D02*
D03*
X60750D02*
D03*
X66250Y466090D02*
D03*
X60750D02*
D03*
X66250Y447040D02*
D03*
X60750D02*
D03*
X322370Y500380D02*
D03*
X327870D02*
D03*
X330200Y420370D02*
D03*
X335700D02*
D03*
X209340Y430530D02*
D03*
X214840D02*
D03*
D54*
X287020Y202350D02*
D03*
Y207850D02*
D03*
Y196850D02*
D03*
X425450Y672250D02*
D03*
X152400Y725380D02*
D03*
Y719880D02*
D03*
X44450Y239820D02*
D03*
Y245320D02*
D03*
X266700Y350310D02*
D03*
Y355810D02*
D03*
X425450Y666750D02*
D03*
X62229Y686010D02*
D03*
Y680510D02*
D03*
X29210Y239820D02*
D03*
Y245320D02*
D03*
X113030Y463130D02*
D03*
Y468630D02*
D03*
X209550Y301200D02*
D03*
Y295700D02*
D03*
X449580Y40640D02*
D03*
Y46140D02*
D03*
X408940Y262680D02*
D03*
Y268180D02*
D03*
X429260Y267970D02*
D03*
Y262470D02*
D03*
X448310Y268180D02*
D03*
Y262680D02*
D03*
X468630Y268180D02*
D03*
Y262680D02*
D03*
X450850Y672250D02*
D03*
Y666750D02*
D03*
X113030Y451060D02*
D03*
Y445560D02*
D03*
X72390Y680510D02*
D03*
Y686010D02*
D03*
D71*
X385200Y450470D02*
D03*
X164800Y501270D02*
D03*
Y348870D02*
D03*
Y374270D02*
D03*
Y399670D02*
D03*
Y425070D02*
D03*
Y450470D02*
D03*
Y475870D02*
D03*
Y526670D02*
D03*
X385200Y348870D02*
D03*
Y374270D02*
D03*
Y399670D02*
D03*
Y425070D02*
D03*
Y475870D02*
D03*
Y501270D02*
D03*
Y526670D02*
D03*
D75*
X488940Y237470D02*
D03*
X348940D02*
D03*
X368940Y77470D02*
D03*
X348940D02*
D03*
X408940D02*
D03*
X388940D02*
D03*
X468940D02*
D03*
X488940D02*
D03*
X428940D02*
D03*
Y237470D02*
D03*
X448940D02*
D03*
X468940D02*
D03*
X388940D02*
D03*
X408940D02*
D03*
X368940D02*
D03*
X448940Y77470D02*
D03*
D76*
X190500Y295910D02*
X196850Y302260D01*
X197910Y301200D02*
X209550D01*
X196850Y302260D02*
X197910Y301200D01*
X209550Y280619D02*
Y295700D01*
X202946Y274015D02*
X209550Y280619D01*
X190500Y254487D02*
Y295910D01*
X178400Y228382D02*
X179734Y228382D01*
X162910Y232734D02*
X173950D01*
X161372Y231196D02*
X162910Y232734D01*
X156930Y228210D02*
X161372Y231196D01*
X153430Y219710D02*
X156930Y228210D01*
X173950Y232734D02*
X178400Y228382D01*
X163830Y242782D02*
X164084D01*
X179734Y228382D02*
X188202Y228900D01*
X192487Y200470D02*
Y212047D01*
X192530Y212090D01*
X188830Y229497D02*
X192530Y233680D01*
X188202Y228900D02*
X188830Y229497D01*
X145840Y307563D02*
Y403591D01*
Y300990D02*
Y307563D01*
X147639Y305764D01*
X179376D01*
X180340Y304800D01*
X167386Y300990D02*
X174500Y293876D01*
X151340Y300990D02*
X167386D01*
X129830Y286730D02*
X132080Y284480D01*
X129830Y286730D02*
Y305364D01*
X174499Y252730D02*
X188743D01*
X190500Y254487D01*
X139954Y295656D02*
Y323850D01*
X142240Y267834D02*
Y293370D01*
X139954Y295656D02*
X142240Y293370D01*
X155700Y283209D02*
Y294890D01*
X155702Y294892D01*
X109295Y327025D02*
X136779D01*
X139954Y323850D01*
X106120D02*
X109295Y327025D01*
X106120Y316835D02*
Y323850D01*
X93120Y316835D02*
Y327583D01*
X93218Y327680D01*
X112621Y305565D02*
Y316835D01*
X132080Y253270D02*
Y284480D01*
X131540Y252730D02*
X132080Y253270D01*
X87380Y574430D02*
X93406Y568404D01*
Y564454D02*
Y568404D01*
X87380Y574430D02*
Y576580D01*
X93406Y564454D02*
X93980Y563880D01*
X7676Y473258D02*
X28700Y494282D01*
X7676Y304445D02*
X16510Y295611D01*
X7676Y304445D02*
Y473258D01*
X16510Y294894D02*
Y295611D01*
X97790Y734060D02*
X101600Y737870D01*
X185166D01*
X195326Y727710D01*
X296926Y743204D02*
X316230Y723900D01*
X37846Y702818D02*
X78232Y743204D01*
X296926D01*
X37846Y664657D02*
X39777Y662726D01*
X53361Y663405D02*
X55285D01*
X52682Y662726D02*
X53361Y663405D01*
X39777Y662726D02*
X52682D01*
X37846Y664657D02*
Y702818D01*
X72390Y680510D02*
X72390D01*
X55285Y663405D02*
X72390Y680510D01*
X80558Y686010D02*
X84578Y690030D01*
X92495D01*
X72390Y686010D02*
X80558D01*
X62229Y686010D02*
X62230Y686010D01*
X72390D01*
X61979Y680260D02*
X62229Y680510D01*
X46230Y673100D02*
X54819D01*
X61979Y680260D01*
Y680260D01*
X62229Y680510D02*
X62229D01*
X315468Y440910D02*
Y468122D01*
X92543Y685506D02*
X101069D01*
X102125Y686562D01*
X65238Y658201D02*
X92543Y685506D01*
X102125Y686562D02*
X111125D01*
X92495Y690030D02*
X97790Y695325D01*
X37169Y658201D02*
X65238D01*
X190340Y588155D02*
Y589280D01*
Y588155D02*
X196850Y581645D01*
Y570230D02*
Y581645D01*
X180340Y582930D02*
Y589280D01*
X173715Y595905D02*
Y600905D01*
X190500Y610870D02*
X198120D01*
X180340Y608459D02*
Y629238D01*
X190754Y639652D01*
X199877Y621030D02*
X217170D01*
X198120Y619273D02*
X199877Y621030D01*
X198120Y610870D02*
Y619273D01*
X184864Y616877D02*
X185340Y616400D01*
Y607530D02*
Y616400D01*
X171450Y574040D02*
X180340Y582930D01*
X171450Y565150D02*
Y574040D01*
X196392Y570230D02*
X196850D01*
X184864Y616877D02*
Y624372D01*
X195326Y634834D01*
X151456Y577016D02*
Y641390D01*
X153401Y643336D01*
X146932Y575142D02*
X151130Y570944D01*
X146932Y575142D02*
Y643264D01*
X153401Y643336D02*
Y713494D01*
X151456Y577016D02*
X224536Y503936D01*
X153401Y713494D02*
X156697Y716790D01*
X148877Y645210D02*
Y701023D01*
X147120Y702780D02*
X148877Y701023D01*
X134620Y702780D02*
X147120D01*
X146932Y643264D02*
X148877Y645210D01*
X173482Y606155D02*
X173715Y605922D01*
Y605905D02*
Y605922D01*
Y600905D02*
Y605672D01*
X173482Y605905D02*
X173715Y605672D01*
X165100Y624840D02*
X173482Y616458D01*
Y606155D02*
Y616458D01*
X151130Y540340D02*
Y570944D01*
X156697Y716790D02*
X172721D01*
X151130Y540340D02*
X164800Y526670D01*
X114300Y538988D02*
X145260D01*
X110998Y542290D02*
X114300Y538988D01*
X185420Y551180D02*
X187960Y553720D01*
X217170D01*
Y585917D02*
X219263Y588010D01*
X217170Y553720D02*
Y585917D01*
X214183Y593090D02*
X219263Y588010D01*
X206502Y593090D02*
X214183D01*
X171450Y565150D02*
X185420Y551180D01*
X196965Y590905D02*
X204317D01*
X224536Y466344D02*
Y503936D01*
X204317Y590905D02*
X206502Y593090D01*
X51374Y13274D02*
Y15694D01*
X57270Y21590D01*
X50800Y12700D02*
X51374Y13274D01*
X48430Y59710D02*
X51536Y56604D01*
Y49693D02*
X52110Y49119D01*
X51536Y49693D02*
Y56604D01*
X113030Y445770D02*
X114798D01*
X67520Y469392D02*
X81788Y455124D01*
X165610Y32178D02*
Y33022D01*
Y17780D02*
Y32178D01*
X386842Y588772D02*
Y669290D01*
X435356Y292862D02*
X435358Y292860D01*
X418338Y309880D02*
X435356Y292862D01*
X398272Y68580D02*
X408940D01*
X60450Y301244D02*
Y301292D01*
X268224Y187325D02*
Y203860D01*
X307086Y193675D02*
Y221740D01*
X92960Y462026D02*
Y500380D01*
Y452630D02*
Y462026D01*
X407670Y688086D02*
X412650D01*
X469138Y268180D02*
Y271780D01*
X39874Y571754D02*
X68580D01*
X296700Y372160D02*
Y379702D01*
X293624Y382778D02*
X296700Y379702D01*
X281700Y349250D02*
Y372160D01*
X110788Y445560D02*
X113030D01*
X108458Y443230D02*
X110788Y445560D01*
X82042Y443230D02*
X108458D01*
X81788Y443484D02*
X82042Y443230D01*
X81788Y443484D02*
Y455124D01*
X66504Y469392D02*
X67520D01*
X66250Y469138D02*
X66504Y469392D01*
X66250Y466090D02*
Y469138D01*
X295127Y196850D02*
X299445Y201168D01*
X287020Y196850D02*
X295127D01*
X211330Y151210D02*
Y212090D01*
Y151210D02*
X248494Y114046D01*
Y83566D02*
Y114046D01*
X248158Y83230D02*
X248494Y83566D01*
X216662Y83230D02*
X248158D01*
X165610Y32178D02*
X216662Y83230D01*
X209340Y430530D02*
Y459740D01*
X182880Y388876D02*
Y425450D01*
Y388876D02*
X288036Y283720D01*
X309880D01*
X97790Y695325D02*
Y734060D01*
X195326Y634834D02*
Y727710D01*
X190754Y639652D02*
Y721951D01*
X187325Y725380D02*
X190754Y721951D01*
X152400Y725380D02*
X187325D01*
X386650Y669290D02*
X386842D01*
X347218Y549148D02*
X386842Y588772D01*
X347218Y443230D02*
Y549148D01*
X304800Y404085D02*
Y404114D01*
Y404085D02*
X307975Y400910D01*
X315450D01*
X219329Y420910D02*
X232950D01*
X228600Y539496D02*
X253420Y514676D01*
X228600Y539496D02*
Y708154D01*
X219964Y716789D02*
X228600Y708154D01*
X209550Y716789D02*
X219964D01*
X238760Y716790D02*
X247651D01*
X237236Y715266D02*
X238760Y716790D01*
X237236Y642874D02*
Y715266D01*
Y642874D02*
X305308Y574802D01*
Y477632D02*
Y574802D01*
X232950Y415910D02*
X243586D01*
X442214Y40640D02*
X449580D01*
X438404Y44450D02*
X442214Y40640D01*
X438404Y44450D02*
Y157861D01*
X434975Y161290D02*
X438404Y157861D01*
X339852Y161290D02*
X434975D01*
X338836Y162306D02*
X339852Y161290D01*
X338836Y162306D02*
Y273050D01*
X340667Y274881D01*
X359410D01*
X359664Y275135D01*
Y422402D01*
X356156Y425910D02*
X359664Y422402D01*
X315450Y425910D02*
X356156D01*
X92960Y500380D02*
Y517144D01*
X342900Y367284D02*
Y392684D01*
X329674Y405910D02*
X342900Y392684D01*
X315450Y405910D02*
X329674D01*
X92711Y452630D02*
X92960D01*
X412650Y688086D02*
Y694900D01*
X407416Y687832D02*
X407670Y688086D01*
X407416Y684784D02*
Y687832D01*
X394970Y672338D02*
X407416Y684784D01*
X394970Y574548D02*
Y672338D01*
X374142Y553720D02*
X394970Y574548D01*
X374142Y514096D02*
Y553720D01*
X222504Y399913D02*
X223501Y400910D01*
X232950D01*
X437650Y682752D02*
Y694900D01*
X256605Y405910D02*
X262955Y412260D01*
X232950Y405910D02*
X256605D01*
X400150Y694900D02*
Y707390D01*
X407770Y715010D01*
X454025D01*
X457200Y711835D01*
Y438658D02*
Y711835D01*
X403860Y385318D02*
X457200Y438658D01*
X248031Y395910D02*
X251206Y392735D01*
X232950Y395910D02*
X248031D01*
X439674Y672250D02*
X450850D01*
X410568Y643144D02*
X439674Y672250D01*
X410568Y537568D02*
Y643144D01*
X222041Y413811D02*
X224942Y410910D01*
X232950D01*
X44450Y245320D02*
X50292D01*
X50546Y328620D01*
X236413Y467098D02*
X246700Y456811D01*
Y454660D02*
Y456811D01*
X29210Y245320D02*
Y314706D01*
X247396Y464312D02*
Y465582D01*
Y464312D02*
X247650Y464058D01*
X251446D01*
X251700Y463804D01*
Y454660D02*
Y463804D01*
X444500Y268180D02*
X448310D01*
X441325Y276860D02*
X444500Y268180D01*
X338836Y326064D02*
Y351536D01*
X330454Y359918D02*
X338836Y351536D01*
X330454Y359918D02*
Y382481D01*
X327025Y385910D02*
X330454Y382481D01*
X315450Y385910D02*
X327025D01*
X301700Y454660D02*
Y470714D01*
X287528Y484886D02*
X301700Y470714D01*
X110998Y542290D02*
Y627380D01*
X123444Y639826D01*
Y716324D01*
X127000Y719880D01*
X152400D01*
X261700Y441151D02*
Y454660D01*
X261620Y441071D02*
X261700Y441151D01*
X107950Y451060D02*
X113030D01*
X103378Y455632D02*
X107950Y451060D01*
X103378Y455632D02*
Y511175D01*
X107823Y515620D01*
X148717D01*
X152019Y512318D01*
Y465074D02*
Y512318D01*
Y465074D02*
X155575Y461518D01*
X188214D01*
X192532Y457200D01*
Y393700D02*
Y457200D01*
Y393700D02*
X223520Y362712D01*
X261446D01*
X261700Y372160D01*
X273050Y127000D02*
Y130556D01*
X272796Y130810D02*
X273050Y130556D01*
X248920Y130810D02*
X272796D01*
X245364Y134366D02*
X248920Y130810D01*
X245364Y134366D02*
Y187960D01*
X255016Y197612D01*
Y237236D01*
X292354Y274574D01*
X327914D01*
X332740Y279400D01*
Y333248D01*
X332486Y333502D02*
X332740Y333248D01*
X316738Y333502D02*
X332486D01*
X316484Y333756D02*
X316738Y333502D01*
X316484Y333756D02*
Y373761D01*
X306070Y384175D02*
X316484Y373761D01*
X306070Y384175D02*
Y391414D01*
X294386Y403098D02*
X306070Y391414D01*
X282368Y403098D02*
X294386D01*
X271700Y392430D02*
X282368Y403098D01*
X271700Y372160D02*
Y392430D01*
X266700Y454660D02*
Y483870D01*
X250190Y500380D02*
X266700Y483870D01*
X271700Y454660D02*
Y495380D01*
X266700Y500380D02*
X271700Y495380D01*
X227750Y28754D02*
X232970D01*
X204470Y52034D02*
X227750Y28754D01*
X66250Y454152D02*
Y455930D01*
Y454152D02*
X66504Y453898D01*
X69850D01*
X73152Y450596D01*
Y431800D02*
Y450596D01*
Y431800D02*
X79347Y425605D01*
X123825D01*
X145840Y403591D01*
X60450Y284480D02*
Y301244D01*
X153670Y323850D02*
Y448818D01*
X133858Y468630D02*
X153670Y448818D01*
X113030Y468630D02*
X133858D01*
X419100Y267970D02*
X429260D01*
X345948Y318516D02*
Y353520D01*
X334978Y364490D02*
X345948Y353520D01*
X334978Y364490D02*
Y387350D01*
X331418Y390910D02*
X334978Y387350D01*
X315450Y390910D02*
X331418D01*
X309880Y283720D02*
Y290322D01*
X325882Y306324D01*
X338836Y283974D02*
Y309118D01*
Y283974D02*
X339090Y283720D01*
X349250D01*
X155700Y252730D02*
Y264350D01*
X152470Y267580D02*
X155700Y264350D01*
X142494Y267580D02*
X152470D01*
X142240Y267834D02*
X142494Y267580D01*
X28700Y494282D02*
Y528321D01*
X276700Y379603D02*
X279875Y382778D01*
X276700Y372160D02*
Y379603D01*
X251714Y350310D02*
X266700D01*
X251714Y383794D02*
X259842Y391922D01*
Y396240D01*
X306324Y442722D01*
Y466598D01*
X311404Y471678D01*
Y682121D01*
X307975Y685550D02*
X311404Y682121D01*
X284480Y685550D02*
X307975D01*
X468630Y268180D02*
X469138D01*
Y271780D02*
X480314Y282956D01*
Y302260D01*
X297180Y300276D02*
Y333853D01*
X297845Y334518D01*
Y357842D01*
X301700Y361696D01*
Y372160D01*
X318010Y310960D02*
X319769D01*
X321134Y312325D01*
X324104D01*
X324360Y312581D01*
Y322580D01*
X335700Y409282D02*
Y420370D01*
Y409282D02*
X353060Y391922D01*
Y309880D02*
Y391922D01*
X435358Y292860D02*
X447040D01*
X357695Y264920D02*
X360870Y268095D01*
X349250Y264920D02*
X357695D01*
X109446Y350075D02*
X112621Y353250D01*
Y361345D01*
X99790Y403860D02*
Y417354D01*
X96063Y421081D02*
X99790Y417354D01*
X70619Y421081D02*
X96063D01*
X66250Y425450D02*
X70619Y421081D01*
X66250Y425450D02*
Y447040D01*
X113030Y459740D02*
Y463130D01*
Y459740D02*
X117856Y454914D01*
Y446837D02*
Y454914D01*
X117554Y446536D02*
X117856Y446837D01*
X115056Y446536D02*
X117554D01*
X114798Y446278D02*
X115056Y446536D01*
X114798Y445770D02*
Y446278D01*
X113030Y445560D02*
Y445770D01*
X276700Y495140D02*
X281940Y500380D01*
X276700Y454660D02*
Y495140D01*
X47500Y528321D02*
Y541020D01*
X281700Y454660D02*
Y461337D01*
X281504Y461533D02*
X281700Y461337D01*
X281504Y461533D02*
Y490474D01*
X281940Y490910D01*
X287710D01*
X297180Y500380D01*
X224536Y466344D02*
X242316Y448564D01*
Y426164D02*
Y448564D01*
X242062Y425910D02*
X242316Y426164D01*
X232950Y425910D02*
X242062D01*
X468940Y77470D02*
Y141930D01*
X399796Y211074D02*
X468940Y141930D01*
X399796Y211074D02*
Y374462D01*
X397587Y376671D02*
X399796Y374462D01*
X397587Y376671D02*
Y383209D01*
X394208Y386588D02*
X397587Y383209D01*
X379730Y386588D02*
X394208D01*
X374302Y392016D02*
X379730Y386588D01*
X374302Y392016D02*
Y426720D01*
X370166Y430856D02*
X374302Y426720D01*
X328628Y430856D02*
X370166D01*
X328574Y430910D02*
X328628Y430856D01*
X315450Y430910D02*
X328574D01*
X327870Y500380D02*
X330454D01*
X339725Y491109D01*
Y438555D02*
Y491109D01*
Y438555D02*
X342900Y435380D01*
X366038D01*
X371602Y440944D01*
Y487672D01*
X385200Y501270D01*
X256700Y454660D02*
Y462186D01*
X259842Y465328D01*
X79250Y272860D02*
Y284480D01*
X249430Y264920D02*
X264160D01*
X286700Y395224D02*
X288478Y397002D01*
X286700Y372160D02*
Y395224D01*
X99620Y306859D02*
Y316835D01*
Y306859D02*
X100917Y305562D01*
X116630Y692067D02*
Y730250D01*
X111125Y686562D02*
X116630Y692067D01*
X28700Y649732D02*
X37169Y658201D01*
X28700Y647700D02*
Y649732D01*
X315450Y435910D02*
X324612D01*
X324866Y436164D01*
Y463594D01*
X322370Y466090D02*
X324866Y463594D01*
X322370Y466090D02*
Y500380D01*
X315450Y440910D02*
X315468D01*
Y468122D02*
X316230Y468884D01*
Y723900D01*
X408940Y268180D02*
X409165Y268405D01*
Y269875D01*
X412470Y273180D01*
X413940D01*
X423677Y282917D01*
X460467D01*
X469900Y292350D01*
X305560Y314135D02*
X308735Y310960D01*
X305560Y314135D02*
Y322580D01*
X443865Y666750D02*
X450850D01*
X440690Y663575D02*
X443865Y666750D01*
X440690Y556760D02*
Y663575D01*
X385200Y501270D02*
X440690Y556760D01*
X428625Y707170D02*
X431500D01*
X425150Y703695D02*
X428625Y707170D01*
X425150Y694900D02*
Y703695D01*
X322795Y410910D02*
X325970Y414085D01*
X315450Y410910D02*
X322795D01*
X265270Y203860D02*
X268224D01*
Y187325D02*
X271399Y184150D01*
X308356D01*
X320294Y196088D01*
Y240286D01*
X320040Y240540D02*
X320294Y240286D01*
X309880Y240540D02*
X320040D01*
X111000Y9650D02*
Y17780D01*
Y9650D02*
X114554Y6096D01*
X108430Y165636D02*
Y219710D01*
X406019Y666750D02*
X425450D01*
X402844Y663575D02*
X406019Y666750D01*
X402844Y544314D02*
Y663575D01*
X385200Y526670D02*
X402844Y544314D01*
X219281Y430910D02*
X232950D01*
X218901Y430530D02*
X219281Y430910D01*
X214840Y430530D02*
X218901D01*
X247650Y651615D02*
X250825Y648440D01*
X247650Y651615D02*
Y656710D01*
X291700Y342646D02*
Y372160D01*
X388940Y237470D02*
Y256794D01*
X282448Y202350D02*
X287020D01*
X282194Y202096D02*
X282448Y202350D01*
X282194Y192532D02*
Y202096D01*
Y192532D02*
X285750Y188976D01*
X302387D01*
X307086Y193675D01*
Y221740D02*
X309880D01*
X146812Y273050D02*
X147066Y272796D01*
X235110Y136711D02*
Y156210D01*
Y136711D02*
X253018Y118803D01*
Y48802D02*
Y118803D01*
X232970Y28754D02*
X253018Y48802D01*
X380746Y77470D02*
X388940D01*
X380492Y77216D02*
X380746Y77470D01*
X380492Y56388D02*
Y77216D01*
X358394Y34290D02*
X380492Y56388D01*
X350520Y34290D02*
X358394D01*
X408940Y68580D02*
Y77470D01*
X398018Y68326D02*
X398272Y68580D01*
X398018Y22225D02*
Y68326D01*
X394843Y19050D02*
X398018Y22225D01*
X350520Y19050D02*
X394843D01*
X174500Y283209D02*
Y293876D01*
X68580Y571754D02*
Y576580D01*
X29460Y561340D02*
X39874Y571754D01*
X368300Y259974D02*
Y281940D01*
Y259974D02*
X368940Y259334D01*
Y237470D02*
Y259334D01*
X266700Y355810D02*
Y372160D01*
X165610Y33022D02*
X177038Y44450D01*
Y135156D01*
X168430Y143764D02*
X177038Y135156D01*
X168430Y143764D02*
Y219710D01*
X228854Y213360D02*
X245270D01*
X227584Y212090D02*
X228854Y213360D01*
X211330Y212090D02*
X227584D01*
X211330D02*
Y233680D01*
X29210Y231804D02*
Y239820D01*
Y231804D02*
X33430Y227584D01*
Y219710D02*
Y227584D01*
X44450Y231564D02*
Y239820D01*
Y231564D02*
X48430Y227584D01*
Y219710D02*
Y227584D01*
X139490Y725380D02*
X152400D01*
X134620Y730250D02*
X139490Y725380D01*
X122130Y730250D02*
X134620D01*
X387650Y682482D02*
Y694900D01*
X386650Y681482D02*
X387650Y682482D01*
X386650Y669290D02*
Y681482D01*
X285950Y702764D02*
Y718820D01*
X284480Y701294D02*
X285950Y702764D01*
X284480Y685550D02*
Y701294D01*
X468630Y249992D02*
Y262680D01*
Y249992D02*
X468940Y249682D01*
Y237470D02*
Y249682D01*
X448310Y250312D02*
Y262680D01*
Y250312D02*
X448940Y249682D01*
Y237470D02*
Y249682D01*
X429260Y250002D02*
Y262470D01*
X428940Y249682D02*
X429260Y250002D01*
X428940Y237470D02*
Y249682D01*
X448940Y62108D02*
Y77470D01*
Y62108D02*
X449580Y61468D01*
Y46140D02*
Y61468D01*
X286764Y127760D02*
X294640D01*
X286004Y127000D02*
X286764Y127760D01*
X278550Y127000D02*
X286004D01*
X428940Y59876D02*
Y77470D01*
X425960Y56896D02*
X428940Y59876D01*
X425960Y39370D02*
Y56896D01*
Y19050D02*
Y39370D01*
Y19050D02*
X443020D01*
X172721Y684784D02*
Y697990D01*
X172720Y684784D02*
X172721Y684784D01*
X172720Y671830D02*
Y684784D01*
X209550Y684784D02*
Y697990D01*
X209550Y684784D02*
X209550Y684784D01*
X209550Y671710D02*
Y684784D01*
X247651Y684784D02*
Y697990D01*
X247650Y684784D02*
X247651Y684784D01*
X247650Y671710D02*
Y684784D01*
X83058Y17780D02*
X92200D01*
X81788Y16510D02*
X83058Y17780D01*
X72650Y16510D02*
X81788D01*
X408940Y237470D02*
Y262680D01*
X488940Y60208D02*
Y77470D01*
Y60208D02*
X488950Y60198D01*
Y43180D02*
Y60198D01*
X309880Y240540D02*
Y264920D01*
X322866Y420370D02*
X330200D01*
X322326Y420910D02*
X322866Y420370D01*
X315450Y420910D02*
X322326D01*
X362650Y669290D02*
Y694900D01*
X450150Y683706D02*
Y694900D01*
Y683706D02*
X450850Y683006D01*
Y672250D02*
Y683006D01*
X29460Y545081D02*
Y561340D01*
X28700Y544322D02*
X29460Y545081D01*
X28700Y528321D02*
Y544322D01*
X46174Y455930D02*
X60750D01*
X43434Y453190D02*
X46174Y455930D01*
X29210Y453190D02*
X43434D01*
X60750Y455930D02*
Y466090D01*
Y447040D02*
Y455930D01*
X274724Y146560D02*
X294640D01*
X274574Y146710D02*
X274724Y146560D01*
X255110Y146710D02*
X274574D01*
X296420Y156720D02*
Y165100D01*
X294640Y154940D02*
X296420Y156720D01*
X294640Y146560D02*
Y154940D01*
X349250Y256088D02*
Y264920D01*
X348940Y255778D02*
X349250Y256088D01*
X348940Y237470D02*
Y255778D01*
X185340Y589280D02*
X190340D01*
X265270Y222860D02*
X276140D01*
X274595Y213526D02*
X277516D01*
X283193Y207850D01*
X287020D01*
X324870Y344170D02*
Y355790D01*
X111760Y488760D02*
Y500380D01*
X435420Y311660D02*
X447040D01*
X458280Y311150D02*
X469900D01*
X119380Y570040D02*
Y581660D01*
X119630Y603250D02*
Y614870D01*
X47500Y636080D02*
Y647700D01*
X27430Y661480D02*
Y673100D01*
X272860Y666750D02*
X284480D01*
X413025Y680676D02*
X414572D01*
X422998Y672250D01*
X425450D01*
X146810Y6160D02*
Y17780D01*
X153430Y59710D02*
Y73980D01*
X63430Y219710D02*
Y233980D01*
X59180Y252730D02*
Y264350D01*
X138430Y205440D02*
Y219710D01*
X255110Y165710D02*
X265980D01*
X277620Y153480D02*
Y165100D01*
X368940Y58200D02*
Y77470D01*
X252540Y283720D02*
X264160D01*
X407160Y7430D02*
Y19050D01*
Y39370D02*
Y50990D01*
X92711Y433830D02*
X104331D01*
X306070Y344170D02*
Y355790D01*
X304930Y415910D02*
X315450D01*
X488940Y218200D02*
Y237470D01*
X48260Y549720D02*
Y561340D01*
X138180Y570040D02*
Y581660D01*
X138430Y603250D02*
Y614870D01*
X172720Y648559D02*
Y656830D01*
X209550Y648440D02*
Y656710D01*
X375150Y694900D02*
Y707170D01*
X337350Y704630D02*
Y723900D01*
X475650Y704630D02*
Y723900D01*
X99620Y361345D02*
X106120D01*
D77*
X199011Y250823D02*
X202946Y246888D01*
Y274015D01*
X102140Y241300D02*
X107220Y236220D01*
X159291D01*
X160829Y237758D01*
X166165D02*
X179450Y238886D01*
X160829Y237758D02*
X166165D01*
X179450Y238886D02*
X185118Y244554D01*
X102140Y241300D02*
Y252730D01*
X199011Y244732D02*
Y250823D01*
Y244732D02*
X201254Y242490D01*
X199011Y201038D02*
X201254Y203280D01*
Y242490D01*
X199011Y132713D02*
X232970Y98754D01*
X199011Y132713D02*
Y201038D01*
X185118Y244554D02*
X187672D01*
X193940Y250823D01*
X199011D01*
X84019Y303141D02*
Y341575D01*
Y303141D02*
X102680Y284480D01*
X84019Y341575D02*
X93120Y350676D01*
X102680Y253270D02*
Y284480D01*
X102140Y252730D02*
X102680Y253270D01*
X77470Y609346D02*
X98298Y630174D01*
X12700Y469138D02*
X77470Y533908D01*
Y609346D01*
X12700Y428752D02*
X25400Y416052D01*
X12700Y428752D02*
Y469138D01*
X98298Y627126D02*
Y630174D01*
X217590Y98754D02*
X232970D01*
X204470Y85634D02*
X217590Y98754D01*
X98350Y677780D02*
X110620D01*
X98298Y630174D02*
X98350Y677780D01*
X25400Y416052D02*
X67088D01*
X70390Y412750D01*
Y403860D02*
Y412750D01*
X93120Y350676D02*
Y361345D01*
X61922Y390652D02*
X70302D01*
X70390Y390740D01*
Y403860D01*
X62841Y361345D02*
X93120D01*
X59436Y357940D02*
X62841Y361345D01*
X29210Y357940D02*
X59436D01*
X77980Y252730D02*
X102140D01*
D78*
X285950Y718820D02*
D03*
D79*
X450850Y397310D02*
D03*
X516890Y300790D02*
D03*
X29210Y357940D02*
D03*
Y453190D02*
D03*
D80*
X105430Y139710D02*
D03*
D81*
X380650Y659290D02*
D03*
X374650Y669290D02*
D03*
X362650D02*
D03*
X386650D02*
D03*
X192487Y200470D02*
D03*
X155702Y294892D02*
D03*
X93218Y327680D02*
D03*
X112621Y305565D02*
D03*
X93980Y563880D02*
D03*
X196850Y570230D02*
D03*
X165100Y624840D02*
D03*
X145260Y538988D02*
D03*
X217170Y553720D02*
D03*
Y621030D02*
D03*
X50800Y12700D02*
D03*
X52110Y49119D02*
D03*
X293624Y382778D02*
D03*
X281700Y349250D02*
D03*
X299445Y201168D02*
D03*
X209340Y459740D02*
D03*
X182880Y425450D02*
D03*
X347218Y443230D02*
D03*
X304800Y404114D02*
D03*
X219329Y420910D02*
D03*
X253420Y514676D02*
D03*
X305308Y477632D02*
D03*
X243586Y415910D02*
D03*
X92960Y517144D02*
D03*
Y462026D02*
D03*
X342900Y367284D02*
D03*
X374142Y514096D02*
D03*
X222504Y399913D02*
D03*
X437650Y682752D02*
D03*
X262955Y412260D02*
D03*
X403860Y385318D02*
D03*
X251206Y392735D02*
D03*
X410568Y537568D02*
D03*
X222041Y413811D02*
D03*
X50546Y328620D02*
D03*
X236413Y467098D02*
D03*
X29210Y314706D02*
D03*
X247396Y465582D02*
D03*
X441325Y276860D02*
D03*
X338836Y326064D02*
D03*
X287528Y484886D02*
D03*
X261620Y441071D02*
D03*
X60450Y301244D02*
D03*
X153670Y323850D02*
D03*
X419100Y267970D02*
D03*
X345948Y318516D02*
D03*
X325882Y306324D02*
D03*
X338836Y309118D02*
D03*
X16510Y294894D02*
D03*
X279875Y382778D02*
D03*
X251714Y350310D02*
D03*
Y383794D02*
D03*
X480314Y302260D02*
D03*
X297180Y300276D02*
D03*
X318010Y310960D02*
D03*
X353060Y309880D02*
D03*
X418338D02*
D03*
X360870Y268095D02*
D03*
X109446Y350075D02*
D03*
X47500Y541020D02*
D03*
X259842Y465328D02*
D03*
X60450Y301292D02*
D03*
X155700Y264350D02*
D03*
X249430Y264920D02*
D03*
X288478Y397002D02*
D03*
X100917Y305562D02*
D03*
X79250Y272860D02*
D03*
X308735Y310960D02*
D03*
X431500Y707170D02*
D03*
X325970Y414085D02*
D03*
X114554Y6096D02*
D03*
X108430Y165636D02*
D03*
X250825Y648440D02*
D03*
X291700Y342646D02*
D03*
X388940Y256794D02*
D03*
X435356Y292862D02*
D03*
X98298Y627126D02*
D03*
X61922Y390652D02*
D03*
X276140Y222860D02*
D03*
X274595Y213526D02*
D03*
X324870Y355790D02*
D03*
X111760Y488760D02*
D03*
X435420Y311660D02*
D03*
X458280Y311150D02*
D03*
X119380Y570040D02*
D03*
X119630Y614870D02*
D03*
X47500Y636080D02*
D03*
X27430Y661480D02*
D03*
X272860Y666750D02*
D03*
X413025Y680676D02*
D03*
X146810Y6160D02*
D03*
X153430Y73980D02*
D03*
X63430Y233980D02*
D03*
X59180Y264350D02*
D03*
X138430Y205440D02*
D03*
X265980Y165710D02*
D03*
X277620Y153480D02*
D03*
X368940Y58200D02*
D03*
X252540Y283720D02*
D03*
X407160Y7430D02*
D03*
Y50990D02*
D03*
X104331Y433830D02*
D03*
X306070Y355790D02*
D03*
X304930Y415910D02*
D03*
X488940Y218200D02*
D03*
X48260Y549720D02*
D03*
X138180Y570040D02*
D03*
X138430Y614870D02*
D03*
X172720Y648559D02*
D03*
X209550Y648440D02*
D03*
X375150Y707170D02*
D03*
X337350Y704630D02*
D03*
X475650D02*
D03*
D82*
X520000Y566420D02*
D03*
Y541020D02*
D03*
Y591820D02*
D03*
Y617220D02*
D03*
Y420370D02*
D03*
Y394970D02*
D03*
Y369570D02*
D03*
Y344170D02*
D03*
D83*
X25000Y725000D02*
D03*
Y25000D02*
D03*
X525000D02*
D03*
X525000Y725000D02*
D03*
D84*
X520000Y515620D02*
D03*
Y445770D02*
D03*
D85*
X180340Y304800D02*
D03*
X129830Y305364D02*
D03*
M02*
