G04*
G04 #@! TF.GenerationSoftware,Altium Limited,Altium Designer,25.0.2 (28)*
G04*
G04 Layer_Physical_Order=4*
G04 Layer_Color=16711680*
%FSLAX44Y44*%
%MOMM*%
G71*
G04*
G04 #@! TF.SameCoordinates,2A483E41-FD86-4516-B0ED-3C6593A289C4*
G04*
G04*
G04 #@! TF.FilePolarity,Positive*
G04*
G01*
G75*
%ADD29C,1.0000*%
%ADD71C,1.5748*%
%ADD76C,0.3000*%
%ADD77C,0.4000*%
%ADD78R,1.0000X1.0000*%
%ADD79R,1.0000X1.0000*%
%ADD80C,1.2100*%
%ADD81C,0.6000*%
%ADD82C,1.3700*%
%ADD83C,4.0000*%
%ADD84R,1.3700X1.3700*%
%ADD85C,1.2700*%
D29*
X298450Y718820D02*
D03*
X450850Y372310D02*
D03*
Y384810D02*
D03*
X29210Y428190D02*
D03*
Y332940D02*
D03*
X516890Y288290D02*
D03*
X29210Y345440D02*
D03*
Y440690D02*
D03*
D71*
X385200Y450470D02*
D03*
X164800Y501270D02*
D03*
Y348870D02*
D03*
Y374270D02*
D03*
Y399670D02*
D03*
Y425070D02*
D03*
Y450470D02*
D03*
Y475870D02*
D03*
Y526670D02*
D03*
X385200Y348870D02*
D03*
Y374270D02*
D03*
Y399670D02*
D03*
Y425070D02*
D03*
Y475870D02*
D03*
Y501270D02*
D03*
Y526670D02*
D03*
D76*
X2067Y27170D02*
Y27171D01*
X2067Y27041D02*
G03*
X38143Y6096I22933J-2041D01*
G01*
X530225Y530606D02*
X539694Y540075D01*
X509016Y682752D02*
X539694Y652074D01*
Y540075D02*
Y652074D01*
X335776Y642416D02*
X362650Y669290D01*
X41402Y588010D02*
X95808Y642416D01*
X335776D01*
X180058Y305082D02*
X180340Y304800D01*
X129830Y305364D02*
X130112Y305082D01*
X180058D01*
X98537Y315707D02*
X186239D01*
X77724Y294894D02*
X98537Y315707D01*
X186239D02*
X245182Y374650D01*
X79250Y272860D02*
X133670D01*
X155702Y294892D01*
X60450Y301244D02*
X83056Y323850D01*
X86839Y327680D02*
X93218D01*
X145260Y538988D02*
X254508D01*
X2067Y27171D02*
Y123987D01*
X43716Y165636D02*
X108430D01*
X2067Y123987D02*
X43716Y165636D01*
X2067Y27041D02*
Y27170D01*
X38143Y6096D02*
X114554D01*
X83056Y323850D02*
X153670D01*
X282057Y394345D02*
X293624Y382778D01*
X282057Y394345D02*
Y423789D01*
X307522Y449254D01*
X353242D01*
X366379Y436118D01*
X510348D01*
X520000Y445770D01*
X281700Y349250D02*
X362864D01*
X374142Y337972D01*
X513802D01*
X520000Y344170D01*
X182880Y433280D02*
X209340Y459740D01*
X182880Y425450D02*
Y433280D01*
X347218Y421386D02*
Y443230D01*
X329946Y404114D02*
X347218Y421386D01*
X304800Y404114D02*
X329946D01*
X219329Y420910D02*
X253420Y455001D01*
Y514676D01*
X267644Y439969D02*
X305308Y477632D01*
X267644Y436935D02*
Y439969D01*
X246619Y415910D02*
X267644Y436935D01*
X243586Y415910D02*
X246619D01*
X44958Y517144D02*
X92960D01*
X41402Y520700D02*
X44958Y517144D01*
X41402Y520700D02*
Y588010D01*
X10414Y379480D02*
X92960Y462026D01*
X10414Y285750D02*
Y379480D01*
Y285750D02*
X15748Y280416D01*
X51816D01*
X71374Y260858D01*
X136906D01*
X159004Y282956D01*
X193294D01*
X277622Y367284D01*
X342900D01*
X361950Y514096D02*
X374142D01*
X307594Y459740D02*
X361950Y514096D01*
X295148Y459740D02*
X307594D01*
X272169Y436761D02*
X295148Y459740D01*
X272169Y424434D02*
Y436761D01*
X267345Y419610D02*
X272169Y424434D01*
X259290Y419610D02*
X267345D01*
X239593Y399913D02*
X259290Y419610D01*
X222504Y399913D02*
X239593D01*
X437650Y682752D02*
X509016D01*
X457200Y530606D02*
X530225D01*
X416814Y490220D02*
X457200Y530606D01*
X377825Y490220D02*
X416814D01*
X374142Y486537D02*
X377825Y490220D01*
X374142Y471932D02*
Y486537D01*
X355989Y453779D02*
X374142Y471932D01*
X299074Y453779D02*
X355989D01*
X276693Y431397D02*
X299074Y453779D01*
X276693Y419648D02*
Y431397D01*
X269305Y412260D02*
X276693Y419648D01*
X262955Y412260D02*
X269305D01*
X376936Y385318D02*
X403860D01*
X367538Y375920D02*
X376936Y385318D01*
X276709Y375920D02*
X367538D01*
X259894Y392735D02*
X276709Y375920D01*
X251206Y392735D02*
X259894D01*
X348880Y537568D02*
X410568D01*
X288748Y477436D02*
X348880Y537568D01*
X222041Y413811D02*
X288748Y477436D01*
X50546Y328620D02*
X56078D01*
X90678Y363220D01*
X182810D01*
X190500Y370910D01*
Y421185D01*
X236413Y467098D01*
X29210Y314706D02*
X50292D01*
X73914Y338328D01*
X153568D01*
X153924Y337972D01*
X171450D01*
X195024Y361546D01*
Y413210D01*
X247396Y465582D01*
X441325Y276860D02*
X482600D01*
X486410Y280670D01*
Y313436D01*
X473782Y326064D02*
X486410Y313436D01*
X338836Y326064D02*
X473782D01*
X287528Y484886D02*
Y505968D01*
X254508Y538988D02*
X287528Y505968D01*
X258445Y441071D02*
X261620D01*
X223774Y406400D02*
X258445Y441071D01*
X219583Y406400D02*
X223774D01*
X216408Y403225D02*
X219583Y406400D01*
X216408Y356181D02*
Y403225D01*
X193675Y333448D02*
X216408Y356181D01*
X149686Y333448D02*
X193675D01*
X149377Y333756D02*
X149686Y333448D01*
X77216Y333756D02*
X149377D01*
X49276Y305816D02*
X77216Y333756D01*
X25400Y305816D02*
X49276D01*
X21082Y310134D02*
X25400Y305816D01*
X21082Y310134D02*
Y337312D01*
X29210Y345440D01*
X385200Y374270D02*
X440310D01*
X450850Y384810D01*
X400812Y249682D02*
X419100Y267970D01*
X321056Y249682D02*
X400812D01*
X291084Y279654D02*
X321056Y249682D01*
X291084Y279654D02*
Y314325D01*
X295275Y318516D01*
X345948D01*
X325882Y306324D02*
X328676Y309118D01*
X338836D01*
X16510Y294894D02*
X77724D01*
X245182Y374650D02*
Y396875D01*
X249881Y401574D01*
X261079D01*
X279875Y382778D01*
X251714Y350310D02*
Y383794D01*
X333801Y302260D02*
X480314D01*
X331818Y300276D02*
X333801Y302260D01*
X297180Y300276D02*
X331818D01*
X353060Y309880D02*
X418338D01*
X449316Y546536D02*
X520000Y617220D01*
X142043Y546536D02*
X449316D01*
X136527Y541020D02*
X142043Y546536D01*
X47500Y541020D02*
X136527D01*
X259842Y465328D02*
X273050Y478536D01*
Y506984D01*
X256159Y523875D02*
X273050Y506984D01*
X249809Y523875D02*
X256159D01*
X214630Y488696D02*
X249809Y523875D01*
X149098Y488696D02*
X214630D01*
X135890Y475488D02*
X149098Y488696D01*
X82804Y475488D02*
X135890D01*
X48006Y440690D02*
X82804Y475488D01*
X29210Y440690D02*
X48006D01*
X60450Y301292D02*
X86839Y327680D01*
X155700Y264350D02*
X156270Y264920D01*
X249430D01*
X503998Y410972D02*
X520000Y394970D01*
X373126Y410972D02*
X503998D01*
X359156Y397002D02*
X373126Y410972D01*
X288478Y397002D02*
X359156D01*
X100917Y294527D02*
Y305562D01*
X79250Y272860D02*
X100917Y294527D01*
X520000Y420370D02*
X530098Y410272D01*
Y339725D02*
Y410272D01*
X523821Y333448D02*
X530098Y339725D01*
X300898Y333448D02*
X523821D01*
X291700Y342646D02*
X300898Y333448D01*
X388940Y256794D02*
X399288D01*
X435356Y292862D01*
X385200Y348870D02*
X396502Y360172D01*
X438712D01*
X450850Y372310D01*
X419174Y397310D02*
X450850D01*
X416814Y399670D02*
X419174Y397310D01*
X385200Y399670D02*
X416814D01*
D77*
X522000Y634970D02*
X534670Y622300D01*
Y606490D02*
Y622300D01*
X139327Y634970D02*
X522000D01*
X520000Y591820D02*
X534670Y606490D01*
X131483Y627126D02*
X139327Y634970D01*
X98298Y627126D02*
X131483D01*
X29210Y357940D02*
X61922Y390652D01*
D78*
X285950Y718820D02*
D03*
D79*
X450850Y397310D02*
D03*
X516890Y300790D02*
D03*
X29210Y357940D02*
D03*
Y453190D02*
D03*
D80*
X105430Y139710D02*
D03*
D81*
X380650Y659290D02*
D03*
X374650Y669290D02*
D03*
X362650D02*
D03*
X386650D02*
D03*
X192487Y200470D02*
D03*
X155702Y294892D02*
D03*
X93218Y327680D02*
D03*
X112621Y305565D02*
D03*
X93980Y563880D02*
D03*
X196850Y570230D02*
D03*
X165100Y624840D02*
D03*
X145260Y538988D02*
D03*
X217170Y553720D02*
D03*
Y621030D02*
D03*
X50800Y12700D02*
D03*
X52110Y49119D02*
D03*
X293624Y382778D02*
D03*
X281700Y349250D02*
D03*
X299445Y201168D02*
D03*
X209340Y459740D02*
D03*
X182880Y425450D02*
D03*
X347218Y443230D02*
D03*
X304800Y404114D02*
D03*
X219329Y420910D02*
D03*
X253420Y514676D02*
D03*
X305308Y477632D02*
D03*
X243586Y415910D02*
D03*
X92960Y517144D02*
D03*
Y462026D02*
D03*
X342900Y367284D02*
D03*
X374142Y514096D02*
D03*
X222504Y399913D02*
D03*
X437650Y682752D02*
D03*
X262955Y412260D02*
D03*
X403860Y385318D02*
D03*
X251206Y392735D02*
D03*
X410568Y537568D02*
D03*
X222041Y413811D02*
D03*
X50546Y328620D02*
D03*
X236413Y467098D02*
D03*
X29210Y314706D02*
D03*
X247396Y465582D02*
D03*
X441325Y276860D02*
D03*
X338836Y326064D02*
D03*
X287528Y484886D02*
D03*
X261620Y441071D02*
D03*
X60450Y301244D02*
D03*
X153670Y323850D02*
D03*
X419100Y267970D02*
D03*
X345948Y318516D02*
D03*
X325882Y306324D02*
D03*
X338836Y309118D02*
D03*
X16510Y294894D02*
D03*
X279875Y382778D02*
D03*
X251714Y350310D02*
D03*
Y383794D02*
D03*
X480314Y302260D02*
D03*
X297180Y300276D02*
D03*
X318010Y310960D02*
D03*
X353060Y309880D02*
D03*
X418338D02*
D03*
X360870Y268095D02*
D03*
X109446Y350075D02*
D03*
X47500Y541020D02*
D03*
X259842Y465328D02*
D03*
X60450Y301292D02*
D03*
X155700Y264350D02*
D03*
X249430Y264920D02*
D03*
X288478Y397002D02*
D03*
X100917Y305562D02*
D03*
X79250Y272860D02*
D03*
X308735Y310960D02*
D03*
X431500Y707170D02*
D03*
X325970Y414085D02*
D03*
X114554Y6096D02*
D03*
X108430Y165636D02*
D03*
X250825Y648440D02*
D03*
X291700Y342646D02*
D03*
X388940Y256794D02*
D03*
X435356Y292862D02*
D03*
X98298Y627126D02*
D03*
X61922Y390652D02*
D03*
X276140Y222860D02*
D03*
X274595Y213526D02*
D03*
X324870Y355790D02*
D03*
X111760Y488760D02*
D03*
X435420Y311660D02*
D03*
X458280Y311150D02*
D03*
X119380Y570040D02*
D03*
X119630Y614870D02*
D03*
X47500Y636080D02*
D03*
X27430Y661480D02*
D03*
X272860Y666750D02*
D03*
X413025Y680676D02*
D03*
X146810Y6160D02*
D03*
X153430Y73980D02*
D03*
X63430Y233980D02*
D03*
X59180Y264350D02*
D03*
X138430Y205440D02*
D03*
X265980Y165710D02*
D03*
X277620Y153480D02*
D03*
X368940Y58200D02*
D03*
X252540Y283720D02*
D03*
X407160Y7430D02*
D03*
Y50990D02*
D03*
X104331Y433830D02*
D03*
X306070Y355790D02*
D03*
X304930Y415910D02*
D03*
X488940Y218200D02*
D03*
X48260Y549720D02*
D03*
X138180Y570040D02*
D03*
X138430Y614870D02*
D03*
X172720Y648559D02*
D03*
X209550Y648440D02*
D03*
X375150Y707170D02*
D03*
X337350Y704630D02*
D03*
X475650D02*
D03*
D82*
X520000Y566420D02*
D03*
Y541020D02*
D03*
Y591820D02*
D03*
Y617220D02*
D03*
Y420370D02*
D03*
Y394970D02*
D03*
Y369570D02*
D03*
Y344170D02*
D03*
D83*
X25000Y725000D02*
D03*
Y25000D02*
D03*
X525000D02*
D03*
X525000Y725000D02*
D03*
D84*
X520000Y515620D02*
D03*
Y445770D02*
D03*
D85*
X180340Y304800D02*
D03*
X129830Y305364D02*
D03*
M02*
