G04*
G04 #@! TF.GenerationSoftware,Altium Limited,Altium Designer,25.0.2 (28)*
G04*
G04 Layer_Color=128*
%FSLAX44Y44*%
%MOMM*%
G71*
G04*
G04 #@! TF.SameCoordinates,2A483E41-FD86-4516-B0ED-3C6593A289C4*
G04*
G04*
G04 #@! TF.FilePolarity,Positive*
G04*
G01*
G75*
%ADD87C,0.0508*%
D87*
X283450Y718820D02*
X288450D01*
X285950Y716320D02*
Y721320D01*
X295950Y718820D02*
X300950D01*
X298450Y716320D02*
Y721320D01*
X448350Y372310D02*
X453350D01*
X450850Y369810D02*
Y374810D01*
X448350Y384810D02*
X453350D01*
X450850Y382310D02*
Y387310D01*
X448350Y397310D02*
X453350D01*
X450850Y394810D02*
Y399810D01*
X99380Y139710D02*
X111480D01*
X105430Y133660D02*
Y145760D01*
X379150Y659290D02*
X382150D01*
X380650Y657790D02*
Y660790D01*
X514900Y566420D02*
X525100D01*
X520000Y561320D02*
Y571520D01*
X379866Y450470D02*
X390534D01*
X385200Y445136D02*
Y455804D01*
X514390Y300790D02*
X519390D01*
X516890Y298290D02*
Y303290D01*
X159466Y501270D02*
X170134D01*
X164800Y495936D02*
Y506604D01*
X26710Y428190D02*
X31710D01*
X29210Y425690D02*
Y430690D01*
X26710Y332940D02*
X31710D01*
X29210Y330440D02*
Y335440D01*
X514900Y541020D02*
X525100D01*
X520000Y535920D02*
Y546120D01*
X373150Y669290D02*
X376150D01*
X374650Y667790D02*
Y670790D01*
X514390Y288290D02*
X519390D01*
X516890Y285790D02*
Y290790D01*
X361150Y669290D02*
X364150D01*
X362650Y667790D02*
Y670790D01*
X385150Y669290D02*
X388150D01*
X386650Y667790D02*
Y670790D01*
X14500Y725000D02*
X35500D01*
X25000Y714500D02*
Y735500D01*
X14500Y25000D02*
X35500D01*
X25000Y14500D02*
Y35500D01*
X514500Y25000D02*
X535500D01*
X525000Y14500D02*
Y35500D01*
X514500Y725000D02*
X535500D01*
X525000Y714500D02*
Y735500D01*
X159466Y348870D02*
X170134D01*
X164800Y343536D02*
Y354204D01*
X159466Y374270D02*
X170134D01*
X164800Y368936D02*
Y379604D01*
X159466Y399670D02*
X170134D01*
X164800Y394336D02*
Y405004D01*
X159466Y425070D02*
X170134D01*
X164800Y419736D02*
Y430404D01*
X159466Y450470D02*
X170134D01*
X164800Y445136D02*
Y455804D01*
X159466Y475870D02*
X170134D01*
X164800Y470536D02*
Y481204D01*
X159466Y526670D02*
X170134D01*
X164800Y521336D02*
Y532004D01*
X379866Y348870D02*
X390534D01*
X385200Y343536D02*
Y354204D01*
X379866Y374270D02*
X390534D01*
X385200Y368936D02*
Y379604D01*
X379866Y399670D02*
X390534D01*
X385200Y394336D02*
Y405004D01*
X379866Y425070D02*
X390534D01*
X385200Y419736D02*
Y430404D01*
X379866Y475870D02*
X390534D01*
X385200Y470536D02*
Y481204D01*
X379866Y501270D02*
X390534D01*
X385200Y495936D02*
Y506604D01*
X379866Y526670D02*
X390534D01*
X385200Y521336D02*
Y532004D01*
X26710Y357940D02*
X31710D01*
X29210Y355440D02*
Y360440D01*
X26710Y345440D02*
X31710D01*
X29210Y342940D02*
Y347940D01*
X514900Y515620D02*
X525100D01*
X520000Y510520D02*
Y520720D01*
X514900Y591820D02*
X525100D01*
X520000Y586720D02*
Y596920D01*
X514900Y617220D02*
X525100D01*
X520000Y612120D02*
Y622320D01*
X514900Y445770D02*
X525100D01*
X520000Y440670D02*
Y450870D01*
X514900Y420370D02*
X525100D01*
X520000Y415270D02*
Y425470D01*
X514900Y394970D02*
X525100D01*
X520000Y389870D02*
Y400070D01*
X514900Y369570D02*
X525100D01*
X520000Y364470D02*
Y374670D01*
X514900Y344170D02*
X525100D01*
X520000Y339070D02*
Y349270D01*
X26710Y440690D02*
X31710D01*
X29210Y438190D02*
Y443190D01*
X26710Y453190D02*
X31710D01*
X29210Y450690D02*
Y455690D01*
X190987Y200470D02*
X193987D01*
X192487Y198970D02*
Y201970D01*
X176784Y304800D02*
X183896D01*
X180340Y301244D02*
Y308356D01*
X126274Y305364D02*
X133386D01*
X129830Y301808D02*
Y308920D01*
X154202Y294892D02*
X157202D01*
X155702Y293392D02*
Y296392D01*
X91718Y327680D02*
X94718D01*
X93218Y326180D02*
Y329180D01*
X111121Y305565D02*
X114121D01*
X112621Y304065D02*
Y307065D01*
X92480Y563880D02*
X95480D01*
X93980Y562380D02*
Y565380D01*
X195350Y570230D02*
X198350D01*
X196850Y568730D02*
Y571730D01*
X163600Y624840D02*
X166600D01*
X165100Y623340D02*
Y626340D01*
X143760Y538988D02*
X146760D01*
X145260Y537488D02*
Y540488D01*
X215670Y553720D02*
X218670D01*
X217170Y552220D02*
Y555220D01*
X215670Y621030D02*
X218670D01*
X217170Y619530D02*
Y622530D01*
X49300Y12700D02*
X52300D01*
X50800Y11200D02*
Y14200D01*
X50610Y49119D02*
X53610D01*
X52110Y47619D02*
Y50619D01*
X292124Y382778D02*
X295124D01*
X293624Y381278D02*
Y384278D01*
X280200Y349250D02*
X283200D01*
X281700Y347750D02*
Y350750D01*
X297945Y201168D02*
X300945D01*
X299445Y199668D02*
Y202668D01*
X207840Y459740D02*
X210840D01*
X209340Y458240D02*
Y461240D01*
X181380Y425450D02*
X184380D01*
X182880Y423950D02*
Y426950D01*
X345718Y443230D02*
X348718D01*
X347218Y441730D02*
Y444730D01*
X303300Y404114D02*
X306300D01*
X304800Y402614D02*
Y405614D01*
X217829Y420910D02*
X220829D01*
X219329Y419410D02*
Y422410D01*
X251920Y514676D02*
X254920D01*
X253420Y513176D02*
Y516176D01*
X303808Y477632D02*
X306808D01*
X305308Y476132D02*
Y479132D01*
X242086Y415910D02*
X245086D01*
X243586Y414410D02*
Y417410D01*
X91460Y517144D02*
X94460D01*
X92960Y515644D02*
Y518644D01*
X91460Y462026D02*
X94460D01*
X92960Y460526D02*
Y463526D01*
X341400Y367284D02*
X344400D01*
X342900Y365784D02*
Y368784D01*
X372642Y514096D02*
X375642D01*
X374142Y512596D02*
Y515596D01*
X221004Y399913D02*
X224004D01*
X222504Y398413D02*
Y401413D01*
X436150Y682752D02*
X439150D01*
X437650Y681252D02*
Y684252D01*
X261455Y412260D02*
X264455D01*
X262955Y410760D02*
Y413760D01*
X402360Y385318D02*
X405360D01*
X403860Y383818D02*
Y386818D01*
X249706Y392735D02*
X252706D01*
X251206Y391235D02*
Y394235D01*
X409068Y537568D02*
X412068D01*
X410568Y536068D02*
Y539068D01*
X220541Y413811D02*
X223541D01*
X222041Y412311D02*
Y415311D01*
X49046Y328620D02*
X52046D01*
X50546Y327120D02*
Y330120D01*
X234913Y467098D02*
X237913D01*
X236413Y465598D02*
Y468598D01*
X27710Y314706D02*
X30710D01*
X29210Y313206D02*
Y316206D01*
X245896Y465582D02*
X248896D01*
X247396Y464082D02*
Y467082D01*
X439825Y276860D02*
X442825D01*
X441325Y275360D02*
Y278360D01*
X337336Y326064D02*
X340336D01*
X338836Y324564D02*
Y327564D01*
X286028Y484886D02*
X289028D01*
X287528Y483386D02*
Y486386D01*
X260120Y441071D02*
X263120D01*
X261620Y439571D02*
Y442571D01*
X58950Y301244D02*
X61950D01*
X60450Y299744D02*
Y302744D01*
X152170Y323850D02*
X155170D01*
X153670Y322350D02*
Y325350D01*
X417600Y267970D02*
X420600D01*
X419100Y266470D02*
Y269470D01*
X344448Y318516D02*
X347448D01*
X345948Y317016D02*
Y320016D01*
X324382Y306324D02*
X327382D01*
X325882Y304824D02*
Y307824D01*
X337336Y309118D02*
X340336D01*
X338836Y307618D02*
Y310618D01*
X15010Y294894D02*
X18010D01*
X16510Y293394D02*
Y296394D01*
X278375Y382778D02*
X281375D01*
X279875Y381278D02*
Y384278D01*
X250214Y350310D02*
X253214D01*
X251714Y348810D02*
Y351810D01*
X250214Y383794D02*
X253214D01*
X251714Y382294D02*
Y385294D01*
X478814Y302260D02*
X481814D01*
X480314Y300760D02*
Y303760D01*
X295680Y300276D02*
X298680D01*
X297180Y298776D02*
Y301776D01*
X316510Y310960D02*
X319510D01*
X318010Y309460D02*
Y312460D01*
X351560Y309880D02*
X354560D01*
X353060Y308380D02*
Y311380D01*
X416838Y309880D02*
X419838D01*
X418338Y308380D02*
Y311380D01*
X359370Y268095D02*
X362370D01*
X360870Y266595D02*
Y269595D01*
X107946Y350075D02*
X110946D01*
X109446Y348575D02*
Y351575D01*
X46000Y541020D02*
X49000D01*
X47500Y539520D02*
Y542520D01*
X258342Y465328D02*
X261342D01*
X259842Y463828D02*
Y466828D01*
X58950Y301292D02*
X61950D01*
X60450Y299792D02*
Y302792D01*
X154200Y264350D02*
X157200D01*
X155700Y262850D02*
Y265850D01*
X247930Y264920D02*
X250930D01*
X249430Y263420D02*
Y266420D01*
X286978Y397002D02*
X289978D01*
X288478Y395502D02*
Y398502D01*
X99417Y305562D02*
X102417D01*
X100917Y304062D02*
Y307062D01*
X77750Y272860D02*
X80750D01*
X79250Y271360D02*
Y274360D01*
X307235Y310960D02*
X310235D01*
X308735Y309460D02*
Y312460D01*
X430000Y707170D02*
X433000D01*
X431500Y705670D02*
Y708670D01*
X324470Y414085D02*
X327470D01*
X325970Y412585D02*
Y415585D01*
X113054Y6096D02*
X116054D01*
X114554Y4596D02*
Y7596D01*
X106930Y165636D02*
X109930D01*
X108430Y164136D02*
Y167136D01*
X249325Y648440D02*
X252325D01*
X250825Y646940D02*
Y649940D01*
X290200Y342646D02*
X293200D01*
X291700Y341146D02*
Y344146D01*
X387440Y256794D02*
X390440D01*
X388940Y255294D02*
Y258294D01*
X433856Y292862D02*
X436856D01*
X435356Y291362D02*
Y294362D01*
X96798Y627126D02*
X99798D01*
X98298Y625626D02*
Y628626D01*
X60422Y390652D02*
X63422D01*
X61922Y389152D02*
Y392152D01*
X274640Y222860D02*
X277640D01*
X276140Y221360D02*
Y224360D01*
X273095Y213526D02*
X276095D01*
X274595Y212026D02*
Y215026D01*
X323370Y355790D02*
X326370D01*
X324870Y354290D02*
Y357290D01*
X110260Y488760D02*
X113260D01*
X111760Y487260D02*
Y490260D01*
X433920Y311660D02*
X436920D01*
X435420Y310160D02*
Y313160D01*
X456780Y311150D02*
X459780D01*
X458280Y309650D02*
Y312650D01*
X117880Y570040D02*
X120880D01*
X119380Y568540D02*
Y571540D01*
X118130Y614870D02*
X121130D01*
X119630Y613370D02*
Y616370D01*
X46000Y636080D02*
X49000D01*
X47500Y634580D02*
Y637580D01*
X25930Y661480D02*
X28930D01*
X27430Y659980D02*
Y662980D01*
X271360Y666750D02*
X274360D01*
X272860Y665250D02*
Y668250D01*
X411525Y680676D02*
X414525D01*
X413025Y679176D02*
Y682176D01*
X145310Y6160D02*
X148310D01*
X146810Y4660D02*
Y7660D01*
X151930Y73980D02*
X154930D01*
X153430Y72480D02*
Y75480D01*
X61930Y233980D02*
X64930D01*
X63430Y232480D02*
Y235480D01*
X57680Y264350D02*
X60680D01*
X59180Y262850D02*
Y265850D01*
X136930Y205440D02*
X139930D01*
X138430Y203940D02*
Y206940D01*
X264480Y165710D02*
X267480D01*
X265980Y164210D02*
Y167210D01*
X276120Y153480D02*
X279120D01*
X277620Y151980D02*
Y154980D01*
X367440Y58200D02*
X370440D01*
X368940Y56700D02*
Y59700D01*
X251040Y283720D02*
X254041D01*
X252540Y282220D02*
Y285220D01*
X405660Y7430D02*
X408660D01*
X407160Y5930D02*
Y8930D01*
X405660Y50990D02*
X408660D01*
X407160Y49490D02*
Y52490D01*
X102830Y433830D02*
X105830D01*
X104331Y432330D02*
Y435330D01*
X304570Y355790D02*
X307570D01*
X306070Y354290D02*
Y357290D01*
X303430Y415910D02*
X306430D01*
X304930Y414410D02*
Y417410D01*
X487440Y218200D02*
X490440D01*
X488940Y216700D02*
Y219700D01*
X46760Y549720D02*
X49760D01*
X48260Y548220D02*
Y551220D01*
X136680Y570040D02*
X139680D01*
X138180Y568540D02*
Y571540D01*
X136930Y614870D02*
X139930D01*
X138430Y613370D02*
Y616370D01*
X171220Y648559D02*
X174220D01*
X172720Y647059D02*
Y650060D01*
X208050Y648440D02*
X211050D01*
X209550Y646940D02*
Y649940D01*
X373650Y707170D02*
X376650D01*
X375150Y705670D02*
Y708670D01*
X335850Y704630D02*
X338850D01*
X337350Y703130D02*
Y706130D01*
X474150Y704630D02*
X477150D01*
X475650Y703130D02*
Y706130D01*
M02*
