G04*
G04 #@! TF.GenerationSoftware,Altium Limited,Altium Designer,25.0.2 (28)*
G04*
G04 Layer_Color=65535*
%FSLAX44Y44*%
%MOMM*%
G71*
G04*
G04 #@! TF.SameCoordinates,2A483E41-FD86-4516-B0ED-3C6593A289C4*
G04*
G04*
G04 #@! TF.FilePolarity,Positive*
G04*
G01*
G75*
%ADD10C,0.2794*%
%ADD11C,0.2500*%
%ADD12C,0.1000*%
%ADD13C,0.2000*%
%ADD14C,0.6000*%
%ADD15C,0.1270*%
%ADD16C,0.1500*%
%ADD17C,0.1524*%
%ADD18C,0.2540*%
%ADD19C,0.7500*%
D10*
X150704Y652888D02*
G03*
X150704Y652888I-1414J0D01*
G01*
D11*
X162840Y605905D02*
G03*
X162840Y605905I-1250J0D01*
G01*
X316700Y379160D02*
G03*
X316700Y379160I-1250J0D01*
G01*
D12*
X57404Y27940D02*
G03*
X57404Y27940I-254J0D01*
G01*
X241554Y656590D02*
G03*
X241554Y656590I-254J0D01*
G01*
X203454D02*
G03*
X203454Y656590I-254J0D01*
G01*
X166624Y656710D02*
G03*
X166624Y656710I-254J0D01*
G01*
X113880Y729000D02*
Y731500D01*
X124880Y729000D02*
Y731500D01*
X63246Y20388D02*
Y22928D01*
X63840Y21658D02*
X66040Y20388D01*
Y22928D01*
X63840Y21658D02*
X66040Y22928D01*
X285770Y194100D02*
X288270D01*
X285770Y210600D02*
X288270D01*
X451270Y17800D02*
Y20300D01*
X440270Y17800D02*
Y20300D01*
X151150Y728130D02*
X153650D01*
X151150Y717130D02*
X153650D01*
X246312Y665480D02*
X247582Y663280D01*
X246312Y665480D02*
X248852D01*
X247582Y663280D02*
X248852Y665480D01*
X246312Y662686D02*
X248852D01*
X208212Y665480D02*
X209482Y663280D01*
X208212Y665480D02*
X210752D01*
X209482Y663280D02*
X210752Y665480D01*
X208212Y662686D02*
X210752D01*
X171382Y662806D02*
X173922D01*
X172652Y663400D02*
X173922Y665600D01*
X171382D02*
X173922D01*
X171382D02*
X172652Y663400D01*
X43200Y237070D02*
X45700D01*
X43200Y248070D02*
X45700D01*
X281300Y125750D02*
Y128250D01*
X270300Y125750D02*
Y128250D01*
X265450Y347560D02*
X267950D01*
X265450Y358560D02*
X267950D01*
X391900Y654040D02*
Y674540D01*
X357400Y654040D02*
X391900D01*
X357400D02*
Y674540D01*
X391900D01*
X424200Y675000D02*
X426700D01*
X424200Y664000D02*
X426700D01*
X201930Y66548D02*
X204470Y70947D01*
X201930Y66548D02*
X207010D01*
X204470Y70947D02*
X207010Y66548D01*
X201930Y71120D02*
X207010D01*
X204470Y61468D02*
Y66548D01*
Y70612D02*
Y75692D01*
X60980Y688760D02*
X63480D01*
X60980Y677760D02*
X63480D01*
X27960Y237070D02*
X30460D01*
X27960Y248070D02*
X30460D01*
X111780Y460380D02*
X114280D01*
X111780Y471380D02*
X114280D01*
X154090Y299740D02*
Y302240D01*
X143090Y299740D02*
Y302240D01*
X208300Y303950D02*
X210800D01*
X208300Y292950D02*
X210800D01*
X69000Y454680D02*
Y457180D01*
X58000Y454680D02*
Y457180D01*
X69000Y464840D02*
Y467340D01*
X58000Y464840D02*
Y467340D01*
X69000Y445790D02*
Y448290D01*
X58000Y445790D02*
Y448290D01*
X448330Y37890D02*
X450830D01*
X448330Y48890D02*
X450830D01*
X407690Y259930D02*
X410190D01*
X407690Y270930D02*
X410190D01*
X428010Y270720D02*
X430510D01*
X428010Y259720D02*
X430510D01*
X447060Y270930D02*
X449560D01*
X447060Y259930D02*
X449560D01*
X467380Y270930D02*
X469880D01*
X467380Y259930D02*
X469880D01*
X319620Y499130D02*
Y501630D01*
X330620Y499130D02*
Y501630D01*
X449600Y675000D02*
X452100D01*
X449600Y664000D02*
X452100D01*
X111780Y453810D02*
X114280D01*
X111780Y442810D02*
X114280D01*
X327450Y419120D02*
Y421620D01*
X338450Y419120D02*
Y421620D01*
X206590Y429280D02*
Y431780D01*
X217590Y429280D02*
Y431780D01*
X71140Y677760D02*
X73640D01*
X71140Y688760D02*
X73640D01*
X461153Y321371D02*
Y328869D01*
X464902D01*
X466151Y327619D01*
Y325120D01*
X464902Y323870D01*
X461153D01*
X463652D02*
X466151Y321371D01*
X473649D02*
X468650D01*
X473649Y326370D01*
Y327619D01*
X472399Y328869D01*
X469900D01*
X468650Y327619D01*
X476148Y321371D02*
X478647D01*
X477398D01*
Y328869D01*
X476148Y327619D01*
X437043Y321371D02*
Y328869D01*
X440792D01*
X442042Y327619D01*
Y325120D01*
X440792Y323870D01*
X437043D01*
X439542D02*
X442042Y321371D01*
X449539D02*
X444541D01*
X449539Y326370D01*
Y327619D01*
X448290Y328869D01*
X445790D01*
X444541Y327619D01*
X457037Y321371D02*
X452038D01*
X457037Y326370D01*
Y327619D01*
X455787Y328869D01*
X453288D01*
X452038Y327619D01*
X400818Y278089D02*
X399568Y279339D01*
X397069D01*
X395819Y278089D01*
Y276840D01*
X397069Y275590D01*
X399568D01*
X400818Y274340D01*
Y273091D01*
X399568Y271841D01*
X397069D01*
X395819Y273091D01*
X403317Y279339D02*
Y271841D01*
X407066D01*
X408315Y273091D01*
Y274340D01*
X407066Y275590D01*
X403317D01*
X407066D01*
X408315Y276840D01*
Y278089D01*
X407066Y279339D01*
X403317D01*
X410814Y271841D02*
X413314D01*
X412064D01*
Y279339D01*
X410814Y278089D01*
X417062D02*
X418312Y279339D01*
X420811D01*
X422061Y278089D01*
Y276840D01*
X420811Y275590D01*
X422061Y274340D01*
Y273091D01*
X420811Y271841D01*
X418312D01*
X417062Y273091D01*
Y274340D01*
X418312Y275590D01*
X417062Y276840D01*
Y278089D01*
X418312Y275590D02*
X420811D01*
X332912Y435508D02*
X331663Y436758D01*
X329164D01*
X327914Y435508D01*
Y434258D01*
X329164Y433009D01*
X331663D01*
X332912Y431759D01*
Y430510D01*
X331663Y429260D01*
X329164D01*
X327914Y430510D01*
X335412Y436758D02*
Y429260D01*
X339160D01*
X340410Y430510D01*
Y431759D01*
X339160Y433009D01*
X335412D01*
X339160D01*
X340410Y434258D01*
Y435508D01*
X339160Y436758D01*
X335412D01*
X342909Y429260D02*
X345408D01*
X344159D01*
Y436758D01*
X342909Y435508D01*
X354156Y436758D02*
X351656Y435508D01*
X349157Y433009D01*
Y430510D01*
X350407Y429260D01*
X352906D01*
X354156Y430510D01*
Y431759D01*
X352906Y433009D01*
X349157D01*
X463632Y278089D02*
X462382Y279339D01*
X459883D01*
X458633Y278089D01*
Y276840D01*
X459883Y275590D01*
X462382D01*
X463632Y274340D01*
Y273091D01*
X462382Y271841D01*
X459883D01*
X458633Y273091D01*
X466131Y279339D02*
Y271841D01*
X469880D01*
X471129Y273091D01*
Y274340D01*
X469880Y275590D01*
X466131D01*
X469880D01*
X471129Y276840D01*
Y278089D01*
X469880Y279339D01*
X466131D01*
X473628D02*
X478627D01*
Y278089D01*
X473628Y273091D01*
Y271841D01*
X443312Y278089D02*
X442062Y279339D01*
X439563D01*
X438313Y278089D01*
Y276840D01*
X439563Y275590D01*
X442062D01*
X443312Y274340D01*
Y273091D01*
X442062Y271841D01*
X439563D01*
X438313Y273091D01*
X445811Y279339D02*
Y271841D01*
X449560D01*
X450809Y273091D01*
Y274340D01*
X449560Y275590D01*
X445811D01*
X449560D01*
X450809Y276840D01*
Y278089D01*
X449560Y279339D01*
X445811D01*
X458307D02*
X455808Y278089D01*
X453308Y275590D01*
Y273091D01*
X454558Y271841D01*
X457057D01*
X458307Y273091D01*
Y274340D01*
X457057Y275590D01*
X453308D01*
X424262Y278089D02*
X423012Y279339D01*
X420513D01*
X419263Y278089D01*
Y276840D01*
X420513Y275590D01*
X423012D01*
X424262Y274340D01*
Y273091D01*
X423012Y271841D01*
X420513D01*
X419263Y273091D01*
X426761Y279339D02*
Y271841D01*
X430510D01*
X431759Y273091D01*
Y274340D01*
X430510Y275590D01*
X426761D01*
X430510D01*
X431759Y276840D01*
Y278089D01*
X430510Y279339D01*
X426761D01*
X439257D02*
X434258D01*
Y275590D01*
X436758Y276840D01*
X438007D01*
X439257Y275590D01*
Y273091D01*
X438007Y271841D01*
X435508D01*
X434258Y273091D01*
D13*
X169430Y239710D02*
G03*
X169430Y239710I-1000J0D01*
G01*
X88392Y318008D02*
G03*
X88392Y318008I-254J0D01*
G01*
X461210Y696550D02*
G03*
X461210Y696550I-1000J0D01*
G01*
X211074Y86106D02*
G03*
X211074Y86106I-254J0D01*
G01*
X521000Y493870D02*
G03*
X521000Y493870I-1000J0D01*
G01*
Y467520D02*
G03*
X521000Y467520I-1000J0D01*
G01*
X265430Y198374D02*
G03*
X265430Y198374I-254J0D01*
G01*
X254364Y140210D02*
G03*
X254364Y140210I-254J0D01*
G01*
X167090Y582655D02*
Y614155D01*
Y582655D02*
X203590D01*
Y614155D01*
X167090D02*
X203590D01*
X243200Y444410D02*
X305200D01*
X243200Y382410D02*
X305200D01*
X243200D02*
Y444410D01*
X305200Y382410D02*
Y444410D01*
X507950Y500370D02*
X532050D01*
X507950Y632470D02*
X532050D01*
X507950Y500370D02*
Y632470D01*
X532050Y500370D02*
Y632470D01*
X507950Y461020D02*
X532050D01*
X507950Y328920D02*
X532050D01*
Y461020D01*
X507950Y328920D02*
Y461020D01*
D14*
X298200Y392410D02*
G03*
X298200Y392410I-3000J0D01*
G01*
D15*
X291084Y674118D02*
Y678182D01*
X277876Y674118D02*
Y678182D01*
X270950Y707570D02*
Y739570D01*
X313450Y707570D02*
Y739570D01*
X270950D02*
X313450D01*
X270950Y707570D02*
X313450D01*
X262950Y715820D02*
X267950Y718820D01*
X262950Y721820D02*
X267950Y718820D01*
X262950Y715820D02*
Y721820D01*
X254850Y706390D02*
Y708390D01*
X240450Y706390D02*
Y708390D01*
X202350Y706390D02*
Y708390D01*
X216750Y706390D02*
Y708390D01*
X104620Y635280D02*
Y668980D01*
Y686580D02*
Y720280D01*
Y635280D02*
X140620D01*
X104620Y720280D02*
X140620D01*
Y661180D02*
Y694380D01*
X199390Y204890D02*
X204470D01*
X199390Y219290D02*
X204470D01*
X447850Y420310D02*
X453850D01*
X450850Y415310D02*
X453850Y420310D01*
X447850D02*
X450850Y415310D01*
X439350Y357560D02*
X471350D01*
Y412310D01*
X439350D02*
X471350D01*
X439350Y357560D02*
Y412310D01*
X20930Y59710D02*
Y219710D01*
X180930Y59710D02*
Y219710D01*
X20930Y59710D02*
X25230D01*
X176630D02*
X180930D01*
X20930Y219710D02*
X25230D01*
X176630D02*
X180930D01*
X342050Y273320D02*
Y275320D01*
X356450Y273320D02*
Y275320D01*
X316484Y272288D02*
Y276352D01*
X303276Y272288D02*
Y276352D01*
X414528Y12700D02*
X418592D01*
X414528Y25400D02*
X418592D01*
X414528Y45720D02*
X418592D01*
X414528Y33020D02*
X418592D01*
X179920Y706390D02*
Y708390D01*
X165520Y706390D02*
Y708390D01*
X111580Y275680D02*
X123180D01*
X111580Y293280D02*
X123180D01*
X111040Y243930D02*
X122640D01*
X111040Y261530D02*
X122640D01*
X68850Y291680D02*
X70850D01*
X68850Y277280D02*
X70850D01*
X66040Y245530D02*
X71120D01*
X66040Y259930D02*
X71120D01*
X288036Y135128D02*
Y139192D01*
X301244Y135128D02*
Y139192D01*
X286020Y172300D02*
X288020D01*
X286020Y157900D02*
X288020D01*
X505640Y315790D02*
X537640D01*
X505640Y273290D02*
X537640D01*
Y315790D01*
X505640Y273290D02*
Y315790D01*
X513890Y323790D02*
X516890Y318790D01*
X519890Y323790D01*
X513890D02*
X519890D01*
X476504Y299718D02*
Y303782D01*
X463296Y299718D02*
Y303782D01*
X440436Y300228D02*
Y304292D01*
X453644Y300228D02*
Y304292D01*
X199898Y227076D02*
X203962D01*
X199898Y240284D02*
X203962D01*
X87885Y322072D02*
Y361188D01*
X117857Y317442D02*
Y361442D01*
X312420Y315380D02*
X317500D01*
X312420Y329780D02*
X317500D01*
X313438Y337820D02*
X317502D01*
X313438Y350520D02*
X317502D01*
X346550Y744900D02*
X464650D01*
X346550Y702900D02*
X352400D01*
X346550D02*
Y704900D01*
X457400Y702900D02*
X464660D01*
Y704900D01*
X346550Y742900D02*
Y744900D01*
X464650Y742900D02*
Y744900D01*
X126240Y588860D02*
X131320D01*
X126240Y574460D02*
X131320D01*
X37100Y640500D02*
X39100D01*
X37100Y654900D02*
X39100D01*
X303276Y229108D02*
Y233172D01*
X316484Y229108D02*
Y233172D01*
X79290Y412660D02*
X90890D01*
X79290Y395060D02*
X90890D01*
X164100Y290410D02*
X166100D01*
X164100Y276010D02*
X166100D01*
X248970Y106254D02*
X286970D01*
X248970Y21254D02*
X286970D01*
X310470Y44754D02*
Y82754D01*
X225470Y44754D02*
Y82754D01*
X164100Y259930D02*
X166100D01*
X164100Y245530D02*
X166100D01*
X17710Y318190D02*
Y372940D01*
X49710D01*
Y318190D02*
Y372940D01*
X17710Y318190D02*
X49710D01*
X26210Y380940D02*
X29210Y375940D01*
X32210Y380940D01*
X26210D02*
X32210D01*
X126490Y596050D02*
X131570D01*
X126490Y610450D02*
X131570D01*
X271360Y273320D02*
Y275320D01*
X256960Y273320D02*
Y275320D01*
X35830Y665900D02*
X37830D01*
X35830Y680300D02*
X37830D01*
X101360Y507580D02*
X103360D01*
X101360Y493180D02*
X103360D01*
X37100Y535520D02*
X39100D01*
X37100Y521120D02*
X39100D01*
X76980Y569380D02*
X78980D01*
X76980Y583780D02*
X78980D01*
X26210Y476190D02*
X32210D01*
X29210Y471190D02*
X32210Y476190D01*
X26210D02*
X29210Y471190D01*
X17710Y413440D02*
X49710D01*
Y468190D01*
X17710D02*
X49710D01*
X17710Y413440D02*
Y468190D01*
X99568Y24384D02*
X103632D01*
X99568Y11176D02*
X103632D01*
X248770Y198860D02*
Y207160D01*
Y219560D02*
Y227860D01*
X255470D01*
X248770Y198860D02*
X255470D01*
X238610Y141710D02*
X245310D01*
X238610Y170710D02*
X245310D01*
X238610Y162410D02*
Y170710D01*
Y141710D02*
Y150010D01*
X251610Y152908D02*
Y159512D01*
X154178Y11430D02*
X158242D01*
X154178Y24130D02*
X158242D01*
X85510Y440690D02*
Y445770D01*
X99910Y440690D02*
Y445770D01*
X36320Y568540D02*
X41400D01*
X36320Y554140D02*
X41400D01*
D16*
X362650Y661040D02*
X364150Y659540D01*
X361150D02*
X364150D01*
X361150D02*
X362650Y661040D01*
X491188Y261470D02*
X486189Y256472D01*
Y261470D02*
X491188Y256472D01*
X488689Y261470D02*
Y256472D01*
X486189Y258971D02*
X491188D01*
D17*
X138130Y330582D02*
X191470D01*
X138130D02*
Y544958D01*
X191470D01*
Y330582D02*
Y544958D01*
X124160Y533020D02*
X136860Y526670D01*
X124160Y520320D02*
Y533020D01*
Y520320D02*
X136860Y526670D01*
X358530Y330582D02*
X411870D01*
X358530D02*
Y544958D01*
X411870D01*
Y330582D02*
Y544958D01*
X344560Y533020D02*
X357260Y526670D01*
X344560Y520320D02*
Y533020D01*
Y520320D02*
X357260Y526670D01*
D18*
X283916Y655259D02*
X278918D01*
Y651510D01*
X281417Y652760D01*
X282667D01*
X283916Y651510D01*
Y649011D01*
X282667Y647761D01*
X280168D01*
X278918Y649011D01*
X286416Y654009D02*
X287665Y655259D01*
X290164D01*
X291414Y654009D01*
Y649011D01*
X290164Y647761D01*
X287665D01*
X286416Y649011D01*
Y654009D01*
X293913Y647761D02*
Y655259D01*
Y650260D02*
X297662Y652760D01*
X293913Y650260D02*
X297662Y647761D01*
X262992Y698439D02*
Y690941D01*
Y694690D01*
X267990D01*
Y698439D01*
Y690941D01*
X274238D02*
Y698439D01*
X270490Y694690D01*
X275488D01*
X242672Y727771D02*
Y735269D01*
X246421D01*
X247670Y734019D01*
Y731520D01*
X246421Y730270D01*
X242672D01*
X245171D02*
X247670Y727771D01*
X253918D02*
Y735269D01*
X250170Y731520D01*
X255168D01*
X203302Y727771D02*
Y735269D01*
X207051D01*
X208300Y734019D01*
Y731520D01*
X207051Y730270D01*
X203302D01*
X205801D02*
X208300Y727771D01*
X210800Y734019D02*
X212049Y735269D01*
X214548D01*
X215798Y734019D01*
Y732770D01*
X214548Y731520D01*
X213299D01*
X214548D01*
X215798Y730270D01*
Y729021D01*
X214548Y727771D01*
X212049D01*
X210800Y729021D01*
X93498Y736539D02*
Y729041D01*
X97247D01*
X98496Y730291D01*
Y731540D01*
X97247Y732790D01*
X93498D01*
X97247D01*
X98496Y734040D01*
Y735289D01*
X97247Y736539D01*
X93498D01*
X100996Y729041D02*
X103495D01*
X102245D01*
Y736539D01*
X100996Y735289D01*
X112242Y729041D02*
X107244D01*
X112242Y734040D01*
Y735289D01*
X110992Y736539D01*
X108493D01*
X107244Y735289D01*
X92710Y720049D02*
X91460Y721299D01*
X88961D01*
X87712Y720049D01*
Y718800D01*
X88961Y717550D01*
X91460D01*
X92710Y716300D01*
Y715051D01*
X91460Y713801D01*
X88961D01*
X87712Y715051D01*
X95209Y713801D02*
X97708D01*
X96459D01*
Y721299D01*
X95209Y720049D01*
X211526Y198079D02*
X210277Y199329D01*
X207778D01*
X206528Y198079D01*
Y193081D01*
X207778Y191831D01*
X210277D01*
X211526Y193081D01*
X214026Y191831D02*
X216525D01*
X215275D01*
Y199329D01*
X214026Y198079D01*
X220274D02*
X221523Y199329D01*
X224022D01*
X225272Y198079D01*
Y196830D01*
X224022Y195580D01*
X222773D01*
X224022D01*
X225272Y194330D01*
Y193081D01*
X224022Y191831D01*
X221523D01*
X220274Y193081D01*
X441624Y435996D02*
X439125D01*
X440375D01*
Y429748D01*
X439125Y428498D01*
X437876D01*
X436626Y429748D01*
X444124Y434746D02*
X445373Y435996D01*
X447872D01*
X449122Y434746D01*
Y433496D01*
X447872Y432247D01*
X446623D01*
X447872D01*
X449122Y430997D01*
Y429748D01*
X447872Y428498D01*
X445373D01*
X444124Y429748D01*
X161544Y632592D02*
Y626344D01*
X162794Y625094D01*
X165293D01*
X166542Y626344D01*
Y632592D01*
X174040Y625094D02*
X169042D01*
X174040Y630092D01*
Y631342D01*
X172790Y632592D01*
X170291D01*
X169042Y631342D01*
X52578Y43820D02*
Y36322D01*
X56327D01*
X57576Y37572D01*
Y42570D01*
X56327Y43820D01*
X52578D01*
X63824Y36322D02*
Y43820D01*
X60076Y40071D01*
X65074D01*
X10192Y232369D02*
Y226121D01*
X11442Y224871D01*
X13941D01*
X15191Y226121D01*
Y232369D01*
X17690Y231119D02*
X18940Y232369D01*
X21439D01*
X22688Y231119D01*
Y229869D01*
X21439Y228620D01*
X20189D01*
X21439D01*
X22688Y227370D01*
Y226121D01*
X21439Y224871D01*
X18940D01*
X17690Y226121D01*
X303489Y203702D02*
X304739Y204952D01*
Y207451D01*
X303489Y208701D01*
X302240D01*
X300990Y207451D01*
Y204952D01*
X299740Y203702D01*
X298491D01*
X297241Y204952D01*
Y207451D01*
X298491Y208701D01*
X304739Y201203D02*
X297241D01*
Y197454D01*
X298491Y196205D01*
X299740D01*
X300990Y197454D01*
Y201203D01*
Y197454D01*
X302240Y196205D01*
X303489D01*
X304739Y197454D01*
Y201203D01*
X297241Y193706D02*
Y191206D01*
Y192456D01*
X304739D01*
X303489Y193706D01*
X304739Y187458D02*
Y182459D01*
X303489D01*
X298491Y187458D01*
X297241D01*
X337983Y295971D02*
Y303469D01*
X341732D01*
X342982Y302219D01*
Y299720D01*
X341732Y298470D01*
X337983D01*
X340482D02*
X342982Y295971D01*
X350479D02*
X345481D01*
X350479Y300970D01*
Y302219D01*
X349230Y303469D01*
X346730D01*
X345481Y302219D01*
X352978Y303469D02*
X357977D01*
Y302219D01*
X352978Y297221D01*
Y295971D01*
X325181Y283047D02*
X332679D01*
Y279298D01*
X331429Y278048D01*
X328930D01*
X327680Y279298D01*
Y283047D01*
Y280548D02*
X325181Y278048D01*
Y270551D02*
Y275549D01*
X330180Y270551D01*
X331429D01*
X332679Y271800D01*
Y274300D01*
X331429Y275549D01*
X325181Y264303D02*
X332679D01*
X328930Y268052D01*
Y263053D01*
X458490Y15301D02*
X460990D01*
X459740D01*
Y22799D01*
X458490Y21549D01*
X380436D02*
X379187Y22799D01*
X376688D01*
X375438Y21549D01*
Y16551D01*
X376688Y15301D01*
X379187D01*
X380436Y16551D01*
X382936Y15301D02*
X385435D01*
X384185D01*
Y22799D01*
X382936Y21549D01*
X389184D02*
X390433Y22799D01*
X392932D01*
X394182Y21549D01*
Y16551D01*
X392932Y15301D01*
X390433D01*
X389184Y16551D01*
Y21549D01*
X382956Y40599D02*
X381706Y41849D01*
X379207D01*
X377958Y40599D01*
Y35601D01*
X379207Y34351D01*
X381706D01*
X382956Y35601D01*
X385455Y34351D02*
X387954D01*
X386705D01*
Y41849D01*
X385455Y40599D01*
X391703Y34351D02*
X394202D01*
X392953D01*
Y41849D01*
X391703Y40599D01*
X327762Y22799D02*
X332760D01*
X330261D01*
Y15301D01*
X335260Y21549D02*
X336509Y22799D01*
X339008D01*
X340258Y21549D01*
Y20300D01*
X339008Y19050D01*
X337759D01*
X339008D01*
X340258Y17800D01*
Y16551D01*
X339008Y15301D01*
X336509D01*
X335260Y16551D01*
X326492Y38039D02*
X331490D01*
X328991D01*
Y30541D01*
X338988D02*
X333990D01*
X338988Y35540D01*
Y36789D01*
X337738Y38039D01*
X335239D01*
X333990Y36789D01*
X166472Y729041D02*
Y736539D01*
X170221D01*
X171470Y735289D01*
Y732790D01*
X170221Y731540D01*
X166472D01*
X168971D02*
X171470Y729041D01*
X178968D02*
X173970D01*
X178968Y734040D01*
Y735289D01*
X177718Y736539D01*
X175219D01*
X173970Y735289D01*
X137928Y736559D02*
X136678Y737809D01*
X134179D01*
X132929Y736559D01*
Y735310D01*
X134179Y734060D01*
X136678D01*
X137928Y732810D01*
Y731561D01*
X136678Y730311D01*
X134179D01*
X132929Y731561D01*
X140427Y737809D02*
Y730311D01*
X144176D01*
X145425Y731561D01*
Y732810D01*
X144176Y734060D01*
X140427D01*
X144176D01*
X145425Y735310D01*
Y736559D01*
X144176Y737809D01*
X140427D01*
X147924Y730311D02*
X150424D01*
X149174D01*
Y737809D01*
X147924Y736559D01*
X154172D02*
X155422Y737809D01*
X157921D01*
X159171Y736559D01*
Y731561D01*
X157921Y730311D01*
X155422D01*
X154172Y731561D01*
Y736559D01*
X241402Y688279D02*
Y680781D01*
X245151D01*
X246400Y682031D01*
Y687029D01*
X245151Y688279D01*
X241402D01*
X248900Y687029D02*
X250149Y688279D01*
X252648D01*
X253898Y687029D01*
Y685780D01*
X252648Y684530D01*
X251399D01*
X252648D01*
X253898Y683280D01*
Y682031D01*
X252648Y680781D01*
X250149D01*
X248900Y682031D01*
X203302Y688279D02*
Y680781D01*
X207051D01*
X208300Y682031D01*
Y687029D01*
X207051Y688279D01*
X203302D01*
X215798Y680781D02*
X210800D01*
X215798Y685780D01*
Y687029D01*
X214548Y688279D01*
X212049D01*
X210800Y687029D01*
X168992Y688279D02*
Y680781D01*
X172740D01*
X173990Y682031D01*
Y687029D01*
X172740Y688279D01*
X168992D01*
X176489Y680781D02*
X178988D01*
X177739D01*
Y688279D01*
X176489Y687029D01*
X108718Y297241D02*
Y304739D01*
X112466D01*
X113716Y303489D01*
Y300990D01*
X112466Y299740D01*
X108718D01*
X111217D02*
X113716Y297241D01*
X116215D02*
X118714D01*
X117465D01*
Y304739D01*
X116215Y303489D01*
X122463Y297241D02*
X124962D01*
X123713D01*
Y304739D01*
X122463Y303489D01*
X110592Y235011D02*
Y242509D01*
X114341D01*
X115590Y241259D01*
Y238760D01*
X114341Y237510D01*
X110592D01*
X113091D02*
X115590Y235011D01*
X118090Y236261D02*
X119339Y235011D01*
X121838D01*
X123088Y236261D01*
Y241259D01*
X121838Y242509D01*
X119339D01*
X118090Y241259D01*
Y240010D01*
X119339Y238760D01*
X123088D01*
X57938Y298511D02*
Y306009D01*
X61687D01*
X62936Y304759D01*
Y302260D01*
X61687Y301010D01*
X57938D01*
X60437D02*
X62936Y298511D01*
X65436D02*
X67935D01*
X66685D01*
Y306009D01*
X65436Y304759D01*
X71684D02*
X72933Y306009D01*
X75432D01*
X76682Y304759D01*
Y303510D01*
X75432Y302260D01*
X74183D01*
X75432D01*
X76682Y301010D01*
Y299761D01*
X75432Y298511D01*
X72933D01*
X71684Y299761D01*
X68600Y241259D02*
X67351Y242509D01*
X64852D01*
X63602Y241259D01*
Y236261D01*
X64852Y235011D01*
X67351D01*
X68600Y236261D01*
X74848Y235011D02*
Y242509D01*
X71100Y238760D01*
X76098D01*
X43221Y257892D02*
X41971Y256642D01*
Y254143D01*
X43221Y252893D01*
X44470D01*
X45720Y254143D01*
Y256642D01*
X46970Y257892D01*
X48219D01*
X49469Y256642D01*
Y254143D01*
X48219Y252893D01*
X41971Y260391D02*
X49469D01*
Y264140D01*
X48219Y265389D01*
X46970D01*
X45720Y264140D01*
Y260391D01*
Y264140D01*
X44470Y265389D01*
X43221D01*
X41971Y264140D01*
Y260391D01*
X43221Y267888D02*
X41971Y269138D01*
Y271637D01*
X43221Y272887D01*
X44470D01*
X45720Y271637D01*
X46970Y272887D01*
X48219D01*
X49469Y271637D01*
Y269138D01*
X48219Y267888D01*
X46970D01*
X45720Y269138D01*
X44470Y267888D01*
X43221D01*
X45720Y269138D02*
Y271637D01*
X308128Y134681D02*
Y142179D01*
X311877D01*
X313126Y140929D01*
Y138430D01*
X311877Y137180D01*
X308128D01*
X310627D02*
X313126Y134681D01*
X315626D02*
X318125D01*
X316875D01*
Y142179D01*
X315626Y140929D01*
X321874Y142179D02*
X326872D01*
Y140929D01*
X321874Y135931D01*
Y134681D01*
X306858Y161351D02*
Y168849D01*
X310607D01*
X311856Y167599D01*
Y165100D01*
X310607Y163850D01*
X306858D01*
X309357D02*
X311856Y161351D01*
X314356D02*
X316855D01*
X315605D01*
Y168849D01*
X314356Y167599D01*
X320604D02*
X321853Y168849D01*
X324352D01*
X325602Y167599D01*
Y162601D01*
X324352Y161351D01*
X321853D01*
X320604Y162601D01*
Y167599D01*
X244608Y128229D02*
X243358Y129479D01*
X240859D01*
X239609Y128229D01*
Y126980D01*
X240859Y125730D01*
X243358D01*
X244608Y124480D01*
Y123231D01*
X243358Y121981D01*
X240859D01*
X239609Y123231D01*
X247107Y129479D02*
Y121981D01*
X250856D01*
X252105Y123231D01*
Y124480D01*
X250856Y125730D01*
X247107D01*
X250856D01*
X252105Y126980D01*
Y128229D01*
X250856Y129479D01*
X247107D01*
X254604Y121981D02*
X257104D01*
X255854D01*
Y129479D01*
X254604Y128229D01*
X260852Y123231D02*
X262102Y121981D01*
X264601D01*
X265851Y123231D01*
Y128229D01*
X264601Y129479D01*
X262102D01*
X260852Y128229D01*
Y126980D01*
X262102Y125730D01*
X265851D01*
X511749Y166268D02*
X505501D01*
X504251Y165018D01*
Y162519D01*
X505501Y161270D01*
X511749D01*
X504251Y155022D02*
X511749D01*
X508000Y158770D01*
Y153772D01*
X497779Y287183D02*
X490281D01*
Y290932D01*
X491531Y292182D01*
X494030D01*
X495280Y290932D01*
Y287183D01*
X490281Y294681D02*
X497779D01*
X495280Y297180D01*
X497779Y299679D01*
X490281D01*
X497779Y302178D02*
X490281D01*
Y305927D01*
X491531Y307177D01*
X494030D01*
X495280Y305927D01*
Y302178D01*
Y304678D02*
X497779Y307177D01*
X495382Y46929D02*
X500380D01*
X497881D01*
Y39431D01*
X502879D02*
X505378D01*
X504129D01*
Y46929D01*
X502879Y45679D01*
X181549Y226223D02*
X174051D01*
Y229972D01*
X175301Y231222D01*
X177800D01*
X179050Y229972D01*
Y226223D01*
Y228722D02*
X181549Y231222D01*
Y238719D02*
Y233721D01*
X176550Y238719D01*
X175301D01*
X174051Y237470D01*
Y234970D01*
X175301Y233721D01*
Y241218D02*
X174051Y242468D01*
Y244967D01*
X175301Y246217D01*
X176550D01*
X177800Y244967D01*
Y243718D01*
Y244967D01*
X179050Y246217D01*
X180299D01*
X181549Y244967D01*
Y242468D01*
X180299Y241218D01*
X97126Y392922D02*
X94626D01*
X93377Y391672D01*
Y386674D01*
X94626Y385424D01*
X97126D01*
X98375Y386674D01*
Y391672D01*
X97126Y392922D01*
X100874Y385424D02*
Y392922D01*
X104623D01*
X105873Y391672D01*
Y389173D01*
X104623Y387923D01*
X100874D01*
X108372Y385424D02*
X110871D01*
X109622D01*
Y392922D01*
X108372Y391672D01*
X341630Y321269D02*
X340380Y322519D01*
X337881D01*
X336632Y321269D01*
Y316271D01*
X337881Y315021D01*
X340380D01*
X341630Y316271D01*
X344129Y315021D02*
X346628D01*
X345379D01*
Y322519D01*
X344129Y321269D01*
X340380Y342859D02*
X339131Y344109D01*
X336632D01*
X335382Y342859D01*
Y337861D01*
X336632Y336611D01*
X339131D01*
X340380Y337861D01*
X347878Y336611D02*
X342880D01*
X347878Y341610D01*
Y342859D01*
X346628Y344109D01*
X344129D01*
X342880Y342859D01*
X270008D02*
X268758Y344109D01*
X266259D01*
X265009Y342859D01*
Y341610D01*
X266259Y340360D01*
X268758D01*
X270008Y339110D01*
Y337861D01*
X268758Y336611D01*
X266259D01*
X265009Y337861D01*
X272507Y344109D02*
Y336611D01*
X276256D01*
X277505Y337861D01*
Y339110D01*
X276256Y340360D01*
X272507D01*
X276256D01*
X277505Y341610D01*
Y342859D01*
X276256Y344109D01*
X272507D01*
X280004Y336611D02*
X282504D01*
X281254D01*
Y344109D01*
X280004Y342859D01*
X290001Y336611D02*
Y344109D01*
X286252Y340360D01*
X291251D01*
X359573Y642681D02*
Y650179D01*
X363322D01*
X364572Y648929D01*
Y646430D01*
X363322Y645180D01*
X359573D01*
X367071Y642681D02*
Y650179D01*
X370820D01*
X372069Y648929D01*
Y646430D01*
X370820Y645180D01*
X367071D01*
X379567Y642681D02*
X374568D01*
X379567Y647680D01*
Y648929D01*
X378317Y650179D01*
X375818D01*
X374568Y648929D01*
X423698Y657799D02*
Y650301D01*
X427447D01*
X428696Y651551D01*
Y652800D01*
X427447Y654050D01*
X423698D01*
X427447D01*
X428696Y655300D01*
Y656549D01*
X427447Y657799D01*
X423698D01*
X431196Y650301D02*
X433695D01*
X432445D01*
Y657799D01*
X431196Y656549D01*
X437444Y651551D02*
X438693Y650301D01*
X441192D01*
X442442Y651551D01*
Y656549D01*
X441192Y657799D01*
X438693D01*
X437444Y656549D01*
Y655300D01*
X438693Y654050D01*
X442442D01*
X332176Y687009D02*
X329677D01*
X330927D01*
Y680761D01*
X329677Y679511D01*
X328428D01*
X327178Y680761D01*
X334676Y679511D02*
X337175D01*
X335925D01*
Y687009D01*
X334676Y685759D01*
X340924Y687009D02*
Y679511D01*
X344672D01*
X345922Y680761D01*
Y682010D01*
Y683260D01*
X344672Y684510D01*
X340924D01*
X195834Y109606D02*
Y102108D01*
X199583D01*
X200832Y103358D01*
Y108356D01*
X199583Y109606D01*
X195834D01*
X208330D02*
X203332D01*
Y105857D01*
X205831Y107106D01*
X207080D01*
X208330Y105857D01*
Y103358D01*
X207080Y102108D01*
X204581D01*
X203332Y103358D01*
X119044Y605688D02*
X117795Y606938D01*
X115296D01*
X114046Y605688D01*
Y600690D01*
X115296Y599440D01*
X117795D01*
X119044Y600690D01*
X121544Y606938D02*
X124043D01*
X122793D01*
Y599440D01*
X121544D01*
X124043D01*
X127792D02*
Y606938D01*
X130291Y604438D01*
X132790Y606938D01*
Y599440D01*
X135289Y606938D02*
Y600690D01*
X136539Y599440D01*
X139038D01*
X140288Y600690D01*
Y606938D01*
X142787Y599440D02*
X145286D01*
X144036D01*
Y606938D01*
X142787Y605688D01*
X210820Y35753D02*
X215818D01*
X210820Y99253D02*
X215818D01*
X213319Y101752D02*
Y96754D01*
X287122Y548579D02*
X292120D01*
X289621D01*
Y541081D01*
X294620Y547329D02*
X295869Y548579D01*
X298368D01*
X299618Y547329D01*
Y546080D01*
X298368Y544830D01*
X299618Y543580D01*
Y542331D01*
X298368Y541081D01*
X295869D01*
X294620Y542331D01*
Y543580D01*
X295869Y544830D01*
X294620Y546080D01*
Y547329D01*
X295869Y544830D02*
X298368D01*
X269342Y537149D02*
X274340D01*
X271841D01*
Y529651D01*
X276840Y537149D02*
X281838D01*
Y535899D01*
X276840Y530901D01*
Y529651D01*
X246482Y532069D02*
X251480D01*
X248981D01*
Y524571D01*
X258978Y532069D02*
X256479Y530819D01*
X253980Y528320D01*
Y525821D01*
X255229Y524571D01*
X257728D01*
X258978Y525821D01*
Y527070D01*
X257728Y528320D01*
X253980D01*
X247142Y521086D02*
X252140D01*
X249641D01*
Y513588D01*
X259638Y521086D02*
X254640D01*
Y517337D01*
X257139Y518586D01*
X258388D01*
X259638Y517337D01*
Y514838D01*
X258388Y513588D01*
X255889D01*
X254640Y514838D01*
X117774Y468274D02*
X116525Y469524D01*
X114026D01*
X112776Y468274D01*
Y467024D01*
X114026Y465775D01*
X116525D01*
X117774Y464525D01*
Y463276D01*
X116525Y462026D01*
X114026D01*
X112776Y463276D01*
X120274Y469524D02*
Y462026D01*
X124022D01*
X125272Y463276D01*
Y464525D01*
X124022Y465775D01*
X120274D01*
X124022D01*
X125272Y467024D01*
Y468274D01*
X124022Y469524D01*
X120274D01*
X132770Y462026D02*
X127771D01*
X132770Y467024D01*
Y468274D01*
X131520Y469524D01*
X129021D01*
X127771Y468274D01*
X135269D02*
X136518Y469524D01*
X139018D01*
X140267Y468274D01*
Y463276D01*
X139018Y462026D01*
X136518D01*
X135269Y463276D01*
Y468274D01*
X256540Y299212D02*
Y306710D01*
X260289D01*
X261538Y305460D01*
Y302961D01*
X260289Y301711D01*
X256540D01*
X259039D02*
X261538Y299212D01*
X264038D02*
X266537D01*
X265287D01*
Y306710D01*
X264038Y305460D01*
X275284Y306710D02*
X272785Y305460D01*
X270286Y302961D01*
Y300462D01*
X271535Y299212D01*
X274034D01*
X275284Y300462D01*
Y301711D01*
X274034Y302961D01*
X270286D01*
X186208Y246441D02*
Y253939D01*
X189957D01*
X191206Y252689D01*
Y250190D01*
X189957Y248940D01*
X186208D01*
X188707D02*
X191206Y246441D01*
X193706D02*
X196205D01*
X194955D01*
Y253939D01*
X193706Y252689D01*
X204952Y253939D02*
X199954D01*
Y250190D01*
X202453Y251440D01*
X203702D01*
X204952Y250190D01*
Y247691D01*
X203702Y246441D01*
X201203D01*
X199954Y247691D01*
X184938Y280731D02*
Y288229D01*
X188687D01*
X189936Y286979D01*
Y284480D01*
X188687Y283230D01*
X184938D01*
X187437D02*
X189936Y280731D01*
X192436D02*
X194935D01*
X193685D01*
Y288229D01*
X192436Y286979D01*
X202432Y280731D02*
Y288229D01*
X198684Y284480D01*
X203682D01*
X23368Y665480D02*
Y672978D01*
X27117D01*
X28366Y671728D01*
Y669229D01*
X27117Y667979D01*
X23368D01*
X25867D02*
X28366Y665480D01*
X30866Y671728D02*
X32115Y672978D01*
X34614D01*
X35864Y671728D01*
Y670478D01*
X34614Y669229D01*
X35864Y667979D01*
Y666730D01*
X34614Y665480D01*
X32115D01*
X30866Y666730D01*
Y667979D01*
X32115Y669229D01*
X30866Y670478D01*
Y671728D01*
X32115Y669229D02*
X34614D01*
X22098Y690880D02*
Y698378D01*
X25847D01*
X27096Y697128D01*
Y694629D01*
X25847Y693379D01*
X22098D01*
X24597D02*
X27096Y690880D01*
X29596Y698378D02*
X34594D01*
Y697128D01*
X29596Y692130D01*
Y690880D01*
X63246Y594360D02*
Y601858D01*
X66995D01*
X68244Y600608D01*
Y598109D01*
X66995Y596859D01*
X63246D01*
X65745D02*
X68244Y594360D01*
X75742Y601858D02*
X73243Y600608D01*
X70744Y598109D01*
Y595610D01*
X71993Y594360D01*
X74492D01*
X75742Y595610D01*
Y596859D01*
X74492Y598109D01*
X70744D01*
X23368Y546100D02*
Y553598D01*
X27117D01*
X28366Y552348D01*
Y549849D01*
X27117Y548599D01*
X23368D01*
X25867D02*
X28366Y546100D01*
X35864Y553598D02*
X30866D01*
Y549849D01*
X33365Y551098D01*
X34614D01*
X35864Y549849D01*
Y547350D01*
X34614Y546100D01*
X32115D01*
X30866Y547350D01*
X87630Y518160D02*
Y525658D01*
X91379D01*
X92628Y524408D01*
Y521909D01*
X91379Y520659D01*
X87630D01*
X90129D02*
X92628Y518160D01*
X95128D02*
X97627D01*
X96377D01*
Y525658D01*
X95128Y524408D01*
X507746Y484764D02*
Y477266D01*
Y481015D01*
X512744D01*
Y484764D01*
Y477266D01*
X520242D02*
X515244D01*
X520242Y482264D01*
Y483514D01*
X518992Y484764D01*
X516493D01*
X515244Y483514D01*
X507746Y650372D02*
Y642874D01*
Y646623D01*
X512744D01*
Y650372D01*
Y642874D01*
X515244D02*
X517743D01*
X516493D01*
Y650372D01*
X515244Y649122D01*
X214773Y125923D02*
Y118425D01*
X219771D01*
X227269Y124673D02*
X226019Y125923D01*
X223520D01*
X222270Y124673D01*
Y123424D01*
X223520Y122174D01*
X226019D01*
X227269Y120924D01*
Y119675D01*
X226019Y118425D01*
X223520D01*
X222270Y119675D01*
X229768Y118425D02*
X232267D01*
X231018D01*
Y125923D01*
X229768Y124673D01*
X14986Y484378D02*
Y491876D01*
X17485Y489376D01*
X19984Y491876D01*
Y484378D01*
X22484Y491876D02*
Y484378D01*
Y488127D01*
X27482D01*
Y491876D01*
Y484378D01*
X34980D02*
X29981D01*
X34980Y489376D01*
Y490626D01*
X33730Y491876D01*
X31231D01*
X29981Y490626D01*
X14986Y389128D02*
Y396626D01*
X17485Y394126D01*
X19984Y396626D01*
Y389128D01*
X22484Y396626D02*
Y389128D01*
Y392877D01*
X27482D01*
Y396626D01*
Y389128D01*
X29981D02*
X32480D01*
X31231D01*
Y396626D01*
X29981Y395376D01*
X228092Y477398D02*
Y471150D01*
X229342Y469900D01*
X231841D01*
X233090Y471150D01*
Y477398D01*
X235590Y469900D02*
X238089D01*
X236839D01*
Y477398D01*
X235590Y476148D01*
X378562Y284419D02*
X383560D01*
X381061D01*
Y276921D01*
X389808D02*
Y284419D01*
X386060Y280670D01*
X391058D01*
X443998Y32979D02*
X442748Y34229D01*
X440249D01*
X438999Y32979D01*
Y31730D01*
X440249Y30480D01*
X442748D01*
X443998Y29230D01*
Y27981D01*
X442748Y26731D01*
X440249D01*
X438999Y27981D01*
X446497Y34229D02*
Y26731D01*
X450246D01*
X451495Y27981D01*
Y29230D01*
X450246Y30480D01*
X446497D01*
X450246D01*
X451495Y31730D01*
Y32979D01*
X450246Y34229D01*
X446497D01*
X453994Y26731D02*
X456494D01*
X455244D01*
Y34229D01*
X453994Y32979D01*
X465241Y34229D02*
X460242D01*
Y30480D01*
X462742Y31730D01*
X463991D01*
X465241Y30480D01*
Y27981D01*
X463991Y26731D01*
X461492D01*
X460242Y27981D01*
X213532Y447192D02*
X212283Y448442D01*
X209784D01*
X208534Y447192D01*
Y445942D01*
X209784Y444693D01*
X212283D01*
X213532Y443443D01*
Y442194D01*
X212283Y440944D01*
X209784D01*
X208534Y442194D01*
X216032Y448442D02*
Y440944D01*
X219780D01*
X221030Y442194D01*
Y443443D01*
X219780Y444693D01*
X216032D01*
X219780D01*
X221030Y445942D01*
Y447192D01*
X219780Y448442D01*
X216032D01*
X223529Y440944D02*
X226028D01*
X224779D01*
Y448442D01*
X223529Y447192D01*
X229777D02*
X231027Y448442D01*
X233526D01*
X234776Y447192D01*
Y445942D01*
X233526Y444693D01*
X232276D01*
X233526D01*
X234776Y443443D01*
Y442194D01*
X233526Y440944D01*
X231027D01*
X229777Y442194D01*
X334512Y482641D02*
X335762Y481391D01*
X338261D01*
X339511Y482641D01*
Y483890D01*
X338261Y485140D01*
X335762D01*
X334512Y486390D01*
Y487639D01*
X335762Y488889D01*
X338261D01*
X339511Y487639D01*
X332013Y481391D02*
Y488889D01*
X328264D01*
X327015Y487639D01*
Y486390D01*
X328264Y485140D01*
X332013D01*
X328264D01*
X327015Y483890D01*
Y482641D01*
X328264Y481391D01*
X332013D01*
X324516Y488889D02*
X322016D01*
X323266D01*
Y481391D01*
X324516Y482641D01*
X313269Y488889D02*
X318268D01*
X313269Y483890D01*
Y482641D01*
X314519Y481391D01*
X317018D01*
X318268Y482641D01*
X77134Y703224D02*
X75885Y704474D01*
X73386D01*
X72136Y703224D01*
Y701974D01*
X73386Y700725D01*
X75885D01*
X77134Y699475D01*
Y698226D01*
X75885Y696976D01*
X73386D01*
X72136Y698226D01*
X79634Y704474D02*
Y696976D01*
X83382D01*
X84632Y698226D01*
Y699475D01*
X83382Y700725D01*
X79634D01*
X83382D01*
X84632Y701974D01*
Y703224D01*
X83382Y704474D01*
X79634D01*
X87131Y696976D02*
X89630D01*
X88381D01*
Y704474D01*
X87131Y703224D01*
X93379Y696976D02*
X95878D01*
X94629D01*
Y704474D01*
X93379Y703224D01*
X25441Y256622D02*
X24191Y255372D01*
Y252873D01*
X25441Y251623D01*
X26690D01*
X27940Y252873D01*
Y255372D01*
X29190Y256622D01*
X30439D01*
X31689Y255372D01*
Y252873D01*
X30439Y251623D01*
X24191Y259121D02*
X31689D01*
Y262870D01*
X30439Y264119D01*
X29190D01*
X27940Y262870D01*
Y259121D01*
Y262870D01*
X26690Y264119D01*
X25441D01*
X24191Y262870D01*
Y259121D01*
X30439Y266618D02*
X31689Y267868D01*
Y270367D01*
X30439Y271617D01*
X25441D01*
X24191Y270367D01*
Y267868D01*
X25441Y266618D01*
X26690D01*
X27940Y267868D01*
Y271617D01*
X110572Y493779D02*
X109322Y495029D01*
X106823D01*
X105573Y493779D01*
Y492530D01*
X106823Y491280D01*
X109322D01*
X110572Y490031D01*
Y488781D01*
X109322Y487531D01*
X106823D01*
X105573Y488781D01*
X113071Y495029D02*
Y487531D01*
X116820D01*
X118069Y488781D01*
Y490031D01*
X116820Y491280D01*
X113071D01*
X116820D01*
X118069Y492530D01*
Y493779D01*
X116820Y495029D01*
X113071D01*
X124317Y487531D02*
Y495029D01*
X120568Y491280D01*
X125567D01*
X150032Y317652D02*
X148783Y318902D01*
X146284D01*
X145034Y317652D01*
Y316402D01*
X146284Y315153D01*
X148783D01*
X150032Y313903D01*
Y312654D01*
X148783Y311404D01*
X146284D01*
X145034Y312654D01*
X152532Y318902D02*
Y311404D01*
X156280D01*
X157530Y312654D01*
Y313903D01*
X156280Y315153D01*
X152532D01*
X156280D01*
X157530Y316402D01*
Y317652D01*
X156280Y318902D01*
X152532D01*
X160029Y317652D02*
X161279Y318902D01*
X163778D01*
X165028Y317652D01*
Y316402D01*
X163778Y315153D01*
X162528D01*
X163778D01*
X165028Y313903D01*
Y312654D01*
X163778Y311404D01*
X161279D01*
X160029Y312654D01*
X214294Y318414D02*
X213045Y319664D01*
X210546D01*
X209296Y318414D01*
Y317164D01*
X210546Y315915D01*
X213045D01*
X214294Y314665D01*
Y313416D01*
X213045Y312166D01*
X210546D01*
X209296Y313416D01*
X216794Y319664D02*
Y312166D01*
X220542D01*
X221792Y313416D01*
Y314665D01*
X220542Y315915D01*
X216794D01*
X220542D01*
X221792Y317164D01*
Y318414D01*
X220542Y319664D01*
X216794D01*
X229290Y312166D02*
X224291D01*
X229290Y317164D01*
Y318414D01*
X228040Y319664D01*
X225541D01*
X224291Y318414D01*
X64942Y472592D02*
X63693Y473842D01*
X61194D01*
X59944Y472592D01*
Y471342D01*
X61194Y470093D01*
X63693D01*
X64942Y468843D01*
Y467594D01*
X63693Y466344D01*
X61194D01*
X59944Y467594D01*
X67442Y473842D02*
Y466344D01*
X71190D01*
X72440Y467594D01*
Y468843D01*
X71190Y470093D01*
X67442D01*
X71190D01*
X72440Y471342D01*
Y472592D01*
X71190Y473842D01*
X67442D01*
X74939Y466344D02*
X77438D01*
X76189D01*
Y473842D01*
X74939Y472592D01*
X322641Y242407D02*
X330139D01*
Y238658D01*
X328889Y237408D01*
X326390D01*
X325140Y238658D01*
Y242407D01*
Y239908D02*
X322641Y237408D01*
Y229911D02*
Y234909D01*
X327640Y229911D01*
X328889D01*
X330139Y231160D01*
Y233660D01*
X328889Y234909D01*
X330139Y222413D02*
X328889Y224912D01*
X326390Y227412D01*
X323891D01*
X322641Y226162D01*
Y223663D01*
X323891Y222413D01*
X325140D01*
X326390Y223663D01*
Y227412D01*
X86868Y35560D02*
Y43058D01*
X90617D01*
X91866Y41808D01*
Y39309D01*
X90617Y38059D01*
X86868D01*
X89367D02*
X91866Y35560D01*
X99364D02*
X94366D01*
X99364Y40558D01*
Y41808D01*
X98114Y43058D01*
X95615D01*
X94366Y41808D01*
X106862Y43058D02*
X101863D01*
Y39309D01*
X104362Y40558D01*
X105612D01*
X106862Y39309D01*
Y36810D01*
X105612Y35560D01*
X103113D01*
X101863Y36810D01*
X64516Y423164D02*
Y430662D01*
X68265D01*
X69514Y429412D01*
Y426913D01*
X68265Y425663D01*
X64516D01*
X67015D02*
X69514Y423164D01*
X72014D02*
X74513D01*
X73263D01*
Y430662D01*
X72014Y429412D01*
X83260Y423164D02*
X78262D01*
X83260Y428162D01*
Y429412D01*
X82010Y430662D01*
X79511D01*
X78262Y429412D01*
X243504Y239502D02*
Y244500D01*
X242255Y245750D01*
X239756D01*
X238506Y244500D01*
Y239502D01*
X239756Y238252D01*
X242255D01*
X241005Y240751D02*
X243504Y238252D01*
X242255D02*
X243504Y239502D01*
X251002Y238252D02*
X246004D01*
X251002Y243250D01*
Y244500D01*
X249752Y245750D01*
X247253D01*
X246004Y244500D01*
X231312Y183368D02*
Y188366D01*
X230063Y189616D01*
X227564D01*
X226314Y188366D01*
Y183368D01*
X227564Y182118D01*
X230063D01*
X228813Y184617D02*
X231312Y182118D01*
X230063D02*
X231312Y183368D01*
X233812Y182118D02*
X236311D01*
X235061D01*
Y189616D01*
X233812Y188366D01*
X130982Y562234D02*
X128483D01*
X129733D01*
Y555986D01*
X128483Y554736D01*
X127234D01*
X125984Y555986D01*
X138480Y554736D02*
X133482D01*
X138480Y559734D01*
Y560984D01*
X137230Y562234D01*
X134731D01*
X133482Y560984D01*
X351454Y562234D02*
X348955D01*
X350205D01*
Y555986D01*
X348955Y554736D01*
X347706D01*
X346456Y555986D01*
X353954Y554736D02*
X356453D01*
X355203D01*
Y562234D01*
X353954Y560984D01*
X119298Y627278D02*
X118049Y628528D01*
X115550D01*
X114300Y627278D01*
Y622280D01*
X115550Y621030D01*
X118049D01*
X119298Y622280D01*
X121798Y628528D02*
X124297D01*
X123047D01*
Y621030D01*
X121798D01*
X124297D01*
X128046D02*
Y628528D01*
X130545Y626028D01*
X133044Y628528D01*
Y621030D01*
X135543Y628528D02*
Y622280D01*
X136793Y621030D01*
X139292D01*
X140542Y622280D01*
Y628528D01*
X146476Y41808D02*
X145227Y43058D01*
X142728D01*
X141478Y41808D01*
Y36810D01*
X142728Y35560D01*
X145227D01*
X146476Y36810D01*
X148976Y35560D02*
X151475D01*
X150225D01*
Y43058D01*
X148976Y41808D01*
X160222Y35560D02*
X155224D01*
X160222Y40558D01*
Y41808D01*
X158972Y43058D01*
X156473D01*
X155224Y41808D01*
X90088Y474370D02*
X88839Y475620D01*
X86340D01*
X85090Y474370D01*
Y469372D01*
X86340Y468122D01*
X88839D01*
X90088Y469372D01*
X97586Y475620D02*
X92588D01*
Y471871D01*
X95087Y473120D01*
X96336D01*
X97586Y471871D01*
Y469372D01*
X96336Y468122D01*
X93837D01*
X92588Y469372D01*
X29128Y585368D02*
X27879Y586618D01*
X25380D01*
X24130Y585368D01*
Y580370D01*
X25380Y579120D01*
X27879D01*
X29128Y580370D01*
X31628Y585368D02*
X32877Y586618D01*
X35376D01*
X36626Y585368D01*
Y584118D01*
X35376Y582869D01*
X34127D01*
X35376D01*
X36626Y581619D01*
Y580370D01*
X35376Y579120D01*
X32877D01*
X31628Y580370D01*
X449743Y657799D02*
Y650301D01*
X453492D01*
X454742Y651551D01*
Y652800D01*
X453492Y654050D01*
X449743D01*
X453492D01*
X454742Y655300D01*
Y656549D01*
X453492Y657799D01*
X449743D01*
X462239Y650301D02*
X457241D01*
X462239Y655300D01*
Y656549D01*
X460990Y657799D01*
X458490D01*
X457241Y656549D01*
X464738D02*
X465988Y657799D01*
X468487D01*
X469737Y656549D01*
Y651551D01*
X468487Y650301D01*
X465988D01*
X464738Y651551D01*
Y656549D01*
X59944Y484002D02*
Y476504D01*
X63693D01*
X64942Y477754D01*
Y479003D01*
X63693Y480253D01*
X59944D01*
X63693D01*
X64942Y481502D01*
Y482752D01*
X63693Y484002D01*
X59944D01*
X67442Y476504D02*
X69941D01*
X68691D01*
Y484002D01*
X67442Y482752D01*
X73690D02*
X74939Y484002D01*
X77438D01*
X78688Y482752D01*
Y481502D01*
X77438Y480253D01*
X78688Y479003D01*
Y477754D01*
X77438Y476504D01*
X74939D01*
X73690Y477754D01*
Y479003D01*
X74939Y480253D01*
X73690Y481502D01*
Y482752D01*
X74939Y480253D02*
X77438D01*
X59944Y464952D02*
Y457454D01*
X63693D01*
X64942Y458704D01*
Y459953D01*
X63693Y461203D01*
X59944D01*
X63693D01*
X64942Y462452D01*
Y463702D01*
X63693Y464952D01*
X59944D01*
X67442Y457454D02*
X69941D01*
X68691D01*
Y464952D01*
X67442Y463702D01*
X73690Y464952D02*
X78688D01*
Y463702D01*
X73690Y458704D01*
Y457454D01*
X61976Y704474D02*
Y696976D01*
X65725D01*
X66974Y698226D01*
Y699475D01*
X65725Y700725D01*
X61976D01*
X65725D01*
X66974Y701974D01*
Y703224D01*
X65725Y704474D01*
X61976D01*
X69474Y696976D02*
X71973D01*
X70723D01*
Y704474D01*
X69474Y703224D01*
X75722Y696976D02*
X78221D01*
X76971D01*
Y704474D01*
X75722Y703224D01*
D19*
X428957Y507592D02*
Y474269D01*
X445619Y457608D01*
X462280Y474269D01*
Y507592D01*
X478941Y457608D02*
X495603D01*
X487272D01*
Y507592D01*
X478941Y499261D01*
X287125Y578969D02*
Y612291D01*
X278795Y620622D01*
X262134D01*
X253803Y612291D01*
Y578969D01*
X262134Y570638D01*
X278795D01*
X270464Y587299D02*
X287125Y570638D01*
X278795D02*
X287125Y578969D01*
X337109Y612291D02*
X328779Y620622D01*
X312117D01*
X303787Y612291D01*
Y603961D01*
X312117Y595630D01*
X328779D01*
X337109Y587299D01*
Y578969D01*
X328779Y570638D01*
X312117D01*
X303787Y578969D01*
X353771Y570638D02*
Y603961D01*
X370432Y620622D01*
X387093Y603961D01*
Y570638D01*
Y595630D01*
X353771D01*
X403755Y620622D02*
X437077D01*
X420416D01*
Y570638D01*
M02*
